<?xml version="1.0" encoding="UTF-8"?>
<!-- Generator: visioncortex VTracer 0.6.3 -->
<svg version="1.1" xmlns="http://www.w3.org/2000/svg" width="1280" height="1280">
<path d="M0 0 C1.1 0 2.19 0 3.33 0 C21.35 0.04 39.01 0.82 56.88 3.31 C57.81 3.44 58.74 3.57 59.7 3.7 C67.96 4.87 76.04 6.47 84.11 8.62 C87.97 9.59 91.87 10.24 95.79 10.88 C97.88 11.31 97.88 11.31 98.88 12.31 C100.45 12.53 100.45 12.53 102.06 12.75 C106.41 13.39 110.18 14.6 114.22 16.3 C116.87 17.31 119.42 17.95 122.19 18.56 C134.17 21.48 145.56 26.51 156.88 31.31 C159.12 32.25 161.37 33.19 163.62 34.12 C165.38 34.85 167.12 35.58 168.88 36.31 C168.88 36.97 168.88 37.63 168.88 38.31 C169.51 38.39 170.14 38.47 170.8 38.55 C175.18 39.64 179.06 41.55 183.12 43.5 C183.98 43.91 184.83 44.31 185.71 44.73 C190.69 47.14 195.35 49.68 199.85 52.92 C202.25 54.57 204.74 55.89 207.31 57.25 C212.82 60.19 217.83 63.63 222.88 67.31 C227.43 70.64 227.43 70.64 232.19 73.66 C235.3 75.57 238.14 77.75 241 80 C246.21 84.07 251.5 87.94 256.93 91.72 C257.57 92.24 258.21 92.77 258.88 93.31 C258.88 93.97 258.88 94.63 258.88 95.31 C259.87 95.64 260.86 95.97 261.88 96.31 C261.88 96.97 261.88 97.63 261.88 98.31 C262.41 98.53 262.95 98.75 263.51 98.98 C266.67 100.76 269.14 103.15 271.75 105.62 C272.77 106.58 273.79 107.54 274.8 108.49 C275.3 108.96 275.8 109.43 276.32 109.91 C277.92 111.35 279.58 112.7 281.26 114.04 C282.12 114.79 282.99 115.54 283.88 116.31 C283.88 116.97 283.88 117.63 283.88 118.31 C284.53 118.31 285.2 118.31 285.88 118.31 C287.21 119.64 287.21 119.64 288.81 121.56 C291.08 124.25 293.38 126.88 295.78 129.45 C296.28 129.98 296.78 130.52 297.3 131.07 C298.3 132.14 299.31 133.21 300.32 134.27 C303.88 138.09 303.88 138.09 303.88 140.31 C304.87 140.64 305.86 140.97 306.88 141.31 C308.49 143.2 309.97 145.07 311.44 147.06 C312.34 148.26 313.23 149.46 314.13 150.65 C314.82 151.57 314.82 151.57 315.52 152.51 C316.78 154.19 318.07 155.85 319.37 157.5 C325.48 165.31 331.15 173.36 336.7 181.57 C337.69 183.04 338.69 184.49 339.69 185.94 C342.97 190.73 345.77 195.67 348.48 200.8 C349.64 202.89 350.86 204.81 352.25 206.75 C353.88 209.31 353.88 209.31 353.88 213.31 C354.53 213.31 355.2 213.31 355.88 213.31 C363.99 229.19 363.99 229.19 367.02 237.18 C367.82 239.18 368.74 241.03 369.75 242.94 C375.45 254.05 379.01 266.47 382.88 278.31 C383.42 279.94 383.96 281.56 384.5 283.19 C384.73 283.88 384.96 284.56 385.19 285.27 C385.67 286.7 386.16 288.12 386.65 289.54 C388.17 293.95 389.39 298.3 390.34 302.86 C390.96 305.7 391.7 308.5 392.44 311.31 C393.54 315.66 394.23 319.85 394.63 324.31 C395.01 327.41 396.01 330.32 396.88 333.31 C398.39 340.65 399.14 347.94 399.58 355.41 C399.87 359.2 400.36 362.91 400.89 366.67 C402.23 377.27 402.18 387.89 402.14 398.56 C402.12 401.94 402.14 405.32 402.15 408.7 C402.16 420.12 401.67 431.02 399.88 442.31 C399.61 445.09 399.45 447.84 399.31 450.62 C398.98 457.1 398.98 457.1 397.88 459.31 C397.51 461.81 397.18 464.3 396.88 466.81 C396.01 474.04 396.01 474.04 394.88 476.31 C394.77 477.55 394.67 478.79 394.56 480.06 C394.02 485.42 392.51 490.37 390.98 495.51 C389.85 499.38 388.88 503.27 387.94 507.19 C385.27 518.12 381.89 528.8 377.88 539.31 C377.61 540.01 377.35 540.72 377.08 541.44 C373.84 550.06 370.48 558.46 366.21 566.64 C364.92 569.22 363.84 571.81 362.81 574.5 C360.92 579.38 358.51 583.79 355.88 588.31 C354.91 590 353.94 591.69 352.98 593.37 C352.28 594.59 351.59 595.8 350.89 597.01 C348.8 600.66 346.78 604.34 344.81 608.06 C342.48 612.35 339.9 616.3 337.05 620.26 C335.29 622.73 333.58 625.22 331.89 627.74 C326.25 636.14 320.57 644.26 313.9 651.87 C311.79 654.28 311.79 654.28 310.23 657.13 C309.78 657.85 309.33 658.57 308.88 659.31 C308.22 659.31 307.55 659.31 306.88 659.31 C306.54 660.3 306.22 661.29 305.88 662.31 C305.22 662.31 304.55 662.31 303.88 662.31 C303.63 662.87 303.39 663.43 303.14 664 C297.89 673.55 287.67 681.61 280.06 689.25 C279.16 690.16 278.25 691.07 277.31 692.01 C264.98 704.31 264.98 704.31 261.88 704.31 C261.54 705.3 261.22 706.29 260.88 707.31 C258.99 708.93 257.12 710.41 255.12 711.88 C253.92 712.78 252.72 713.68 251.52 714.58 C250.91 715.04 250.3 715.49 249.67 715.96 C247 717.98 244.38 720.06 241.75 722.12 C211.93 745.24 211.93 745.24 201.88 747.31 C201.88 747.97 201.88 748.63 201.88 749.31 C200.87 749.81 200.87 749.81 199.85 750.31 C193.6 753.4 187.41 756.6 181.25 759.88 C178.46 761.36 175.67 762.83 172.88 764.31 C171.43 765.08 171.43 765.08 169.95 765.86 C164.93 768.45 159.86 770.49 154.52 772.35 C152.09 773.23 149.78 774.23 147.44 775.31 C142.98 777.35 138.4 778.86 133.73 780.37 C131.31 781.17 128.94 782.02 126.56 782.94 C123.03 784.26 119.51 785.31 115.88 786.31 C114.21 786.83 112.54 787.35 110.88 787.88 C106.89 789.09 103.01 789.75 98.88 790.31 C97.2 790.96 95.53 791.62 93.88 792.31 C88.41 793.85 82.95 794.85 77.34 795.74 C74.82 796.16 72.32 796.6 69.82 797.07 C61.76 798.58 53.93 799.7 45.73 800.1 C43.02 800.22 43.02 800.22 41.02 800.79 C29.33 803.63 16.18 802.47 4.25 802.44 C0.88 802.44 -2.48 802.44 -5.84 802.45 C-32.8 802.46 -32.8 802.46 -41.12 800.31 C-43.12 800.18 -45.12 800.08 -47.12 800 C-54.21 799.55 -60.99 798.27 -67.93 796.77 C-71.9 795.92 -75.78 795.2 -79.82 794.8 C-83.6 794.42 -87.05 793.62 -90.69 792.5 C-95.93 790.93 -101.18 789.53 -106.5 788.25 C-111.15 787.12 -115.66 785.9 -120.09 784.09 C-122.79 783.06 -125.54 782.26 -128.31 781.44 C-138.6 778.3 -148.37 774.29 -158.09 769.7 C-160.66 768.52 -163.22 767.49 -165.88 766.5 C-172.15 764.06 -177.98 760.76 -183.89 757.57 C-189.24 754.7 -194.67 751.99 -200.12 749.31 C-200.12 748.65 -200.12 747.99 -200.12 747.31 C-200.72 747.19 -201.31 747.06 -201.92 746.93 C-205.38 745.96 -208.24 743.97 -211.25 742.06 C-211.94 741.63 -212.64 741.19 -213.35 740.74 C-224.25 733.78 -234.77 726.12 -244.89 718.07 C-246.76 716.6 -248.64 715.17 -250.55 713.74 C-251.15 713.29 -251.75 712.84 -252.37 712.37 C-253.56 711.47 -254.76 710.58 -255.96 709.69 C-257.39 708.61 -258.76 707.47 -260.12 706.31 C-260.12 705.65 -260.12 704.99 -260.12 704.31 C-260.78 704.31 -261.44 704.31 -262.12 704.31 C-262.12 703.65 -262.12 702.99 -262.12 702.31 C-262.74 702 -263.36 701.69 -264 701.38 C-265.38 700.69 -266.75 700 -268.12 699.31 C-268.12 698.65 -268.12 697.99 -268.12 697.31 C-268.67 697.09 -269.22 696.87 -269.79 696.63 C-272.83 694.92 -275.11 692.62 -277.55 690.16 C-278.05 689.65 -278.56 689.15 -279.08 688.63 C-280.14 687.57 -281.2 686.51 -282.25 685.44 C-283.88 683.81 -285.51 682.19 -287.14 680.57 C-288.18 679.53 -289.21 678.5 -290.23 677.47 C-290.72 676.98 -291.22 676.5 -291.72 675.99 C-295.12 672.54 -295.12 672.54 -295.12 670.31 C-295.78 670.31 -296.44 670.31 -297.12 670.31 C-302.12 664.84 -302.12 664.84 -302.12 662.31 C-303.12 661.98 -304.11 661.65 -305.12 661.31 C-306.74 659.43 -308.22 657.56 -309.69 655.56 C-310.59 654.36 -311.49 653.17 -312.39 651.97 C-312.84 651.36 -313.3 650.74 -313.77 650.11 C-315.81 647.4 -317.91 644.74 -320 642.06 C-323.96 636.94 -327.76 631.72 -331.5 626.44 C-332 625.74 -332.5 625.03 -333.02 624.31 C-335.98 620.09 -338.61 615.82 -341.12 611.31 C-341.88 610.03 -342.65 608.76 -343.41 607.49 C-343.8 606.85 -344.18 606.22 -344.58 605.56 C-345.37 604.26 -346.16 602.96 -346.95 601.65 C-352.12 593.07 -352.12 593.07 -352.12 589.31 C-352.78 589.31 -353.44 589.31 -354.12 589.31 C-362.24 573.43 -362.24 573.43 -365.27 565.45 C-366.07 563.44 -366.99 561.59 -368 559.69 C-373.19 549.57 -376.51 538.37 -380.03 527.59 C-380.89 525 -381.81 522.47 -382.81 519.94 C-384.12 516.34 -384.96 512.85 -385.7 509.1 C-385.96 507.3 -385.96 507.3 -387.12 506.31 C-387.61 504.22 -388.08 502.12 -388.53 500.02 C-389.14 497.24 -389.84 494.5 -390.56 491.75 C-392.43 484.33 -393.78 476.84 -395.12 469.31 C-395.42 467.75 -395.42 467.75 -395.72 466.15 C-396.9 459.65 -397.47 453.24 -397.78 446.64 C-397.93 444.18 -398.2 441.82 -398.59 439.39 C-400.41 427.96 -400.39 416.66 -400.33 405.11 C-400.31 401.69 -400.31 398.27 -400.31 394.85 C-400.27 367.62 -400.27 367.62 -398.12 359.31 C-398 357.31 -397.9 355.31 -397.81 353.31 C-397.24 344.63 -395.44 336.28 -393.63 327.78 C-392.6 322.77 -391.73 317.73 -390.84 312.7 C-390.15 309.45 -389.19 306.44 -388.12 303.31 C-387.96 302.16 -387.79 301 -387.62 299.81 C-387.02 295.55 -385.75 291.84 -384.12 287.88 C-383.04 285.22 -383.04 285.22 -382.19 282 C-381.25 278.74 -380.15 275.65 -378.91 272.5 C-378.05 270.19 -378.05 270.19 -377.3 267.28 C-375.82 261.99 -373.75 256.92 -371.75 251.81 C-371.36 250.81 -370.98 249.8 -370.58 248.76 C-368.45 243.31 -366.11 238.34 -363.12 233.31 C-362.44 231.73 -361.79 230.12 -361.19 228.5 C-359.17 223.26 -356.71 218.29 -354.12 213.31 C-353.47 213.31 -352.81 213.31 -352.12 213.31 C-352.03 212.61 -351.93 211.9 -351.82 211.17 C-351.01 207.86 -349.69 205.48 -347.94 202.56 C-347.31 201.51 -346.68 200.46 -346.03 199.38 C-343.96 196.04 -341.82 192.77 -339.58 189.54 C-338.43 187.78 -337.37 185.95 -336.34 184.11 C-333.82 179.65 -330.83 175.56 -327.81 171.44 C-327.23 170.64 -326.65 169.84 -326.06 169.02 C-322.18 163.7 -318.22 158.46 -314.12 153.31 C-312.87 151.71 -311.62 150.11 -310.38 148.5 C-309.82 147.79 -309.27 147.08 -308.7 146.36 C-307.62 144.95 -306.57 143.51 -305.55 142.05 C-304.84 141.19 -304.84 141.19 -304.12 140.31 C-303.47 140.31 -302.81 140.31 -302.12 140.31 C-301.9 139.77 -301.68 139.23 -301.46 138.68 C-299.68 135.52 -297.29 133.05 -294.81 130.44 C-293.86 129.42 -292.9 128.4 -291.95 127.38 C-291.48 126.88 -291.01 126.38 -290.53 125.87 C-289.09 124.27 -287.74 122.61 -286.39 120.93 C-285.65 120.07 -284.9 119.2 -284.12 118.31 C-283.47 118.31 -282.81 118.31 -282.12 118.31 C-282.12 117.65 -282.12 116.99 -282.12 116.31 C-280.8 114.97 -280.8 114.97 -278.88 113.38 C-276.19 111.11 -273.56 108.81 -270.99 106.41 C-270.46 105.91 -269.92 105.41 -269.37 104.89 C-268.3 103.89 -267.23 102.88 -266.16 101.87 C-262.35 98.31 -262.35 98.31 -260.12 98.31 C-259.79 97.32 -259.47 96.33 -259.12 95.31 C-257.24 93.7 -255.37 92.22 -253.38 90.75 C-252.18 89.85 -250.98 88.95 -249.79 88.05 C-249.17 87.6 -248.56 87.14 -247.93 86.67 C-246.25 85.41 -244.59 84.12 -242.93 82.82 C-235.13 76.71 -227.08 71.03 -218.86 65.49 C-217.4 64.5 -215.95 63.5 -214.5 62.5 C-209.71 59.22 -204.76 56.42 -199.64 53.7 C-197.59 52.57 -195.67 51.39 -193.75 50.06 C-191.12 48.31 -191.12 48.31 -188.91 47.45 C-185.44 46.03 -182.21 44.24 -178.94 42.44 C-173.82 39.66 -168.75 37.21 -163.29 35.16 C-161.27 34.37 -159.42 33.46 -157.5 32.44 C-151.63 29.41 -145.33 27.32 -139.14 25.05 C-135.04 23.55 -130.94 22.02 -126.88 20.43 C-123.02 18.93 -119.21 17.79 -115.19 16.84 C-112.97 16.27 -110.85 15.56 -108.69 14.81 C-105.01 13.56 -101.37 12.64 -97.57 11.85 C-94.73 11.23 -91.94 10.49 -89.12 9.75 C-84.77 8.64 -80.59 7.95 -76.12 7.55 C-73.03 7.18 -70.12 6.17 -67.12 5.31 C-59.79 3.8 -52.51 3.05 -45.03 2.61 C-41.21 2.32 -37.47 1.83 -33.68 1.3 C-22.48 -0.11 -11.27 -0.04 0 0 Z M-26.12 172.31 C-26.12 172.97 -26.12 173.63 -26.12 174.31 C-26.78 174.31 -27.44 174.31 -28.12 174.31 C-36.07 184.5 -38.39 193.89 -38.54 206.59 C-38.56 207.65 -38.58 208.7 -38.6 209.79 C-38.66 213.13 -38.7 216.47 -38.75 219.81 C-38.79 222.09 -38.83 224.36 -38.87 226.64 C-38.96 232.2 -39.05 237.76 -39.12 243.31 C-40.01 243.58 -40.9 243.84 -41.81 244.11 C-42.97 244.46 -44.14 244.81 -45.34 245.18 C-46.49 245.52 -47.65 245.87 -48.84 246.22 C-52.87 247.56 -56.38 249.34 -60.12 251.31 C-61.45 251.68 -62.78 252.02 -64.12 252.31 C-64.12 252.97 -64.12 253.63 -64.12 254.31 C-65.44 254.31 -66.76 254.31 -68.12 254.31 C-68.12 254.97 -68.12 255.63 -68.12 256.31 C-70.78 257.39 -73.41 258.41 -76.12 259.31 C-76.12 259.97 -76.12 260.63 -76.12 261.31 C-76.71 261.59 -77.29 261.86 -77.89 262.15 C-84.97 265.83 -90.14 271.19 -95.12 277.31 C-95.93 278.26 -96.73 279.21 -97.56 280.19 C-99.32 282.14 -99.32 282.14 -99.12 284.31 C-99.79 284.31 -100.44 284.31 -101.12 284.31 C-115.49 308.63 -123.11 336.17 -116.12 364.31 C-111.65 380.41 -104.09 394.7 -93.12 407.31 C-91.96 408.78 -91.96 408.78 -90.77 410.28 C-81.1 421.88 -64.67 431.26 -50.38 435.44 C-44.29 437.23 -44.29 437.23 -42.12 438.31 C-33.56 440.04 -25.12 440.61 -16.4 440.66 C-15.25 440.67 -14.11 440.69 -12.92 440.7 C-8.07 440.76 -3.21 440.8 1.64 440.84 C5.21 440.88 8.78 440.92 12.35 440.97 C13.99 440.98 13.99 440.98 15.67 440.98 C16.69 441 17.71 441.01 18.76 441.03 C19.66 441.03 20.55 441.04 21.47 441.05 C24.04 441.33 25.61 442.12 27.88 443.31 C28.87 443.31 29.86 443.31 30.88 443.31 C30.88 443.97 30.88 444.63 30.88 445.31 C32.21 446.98 32.21 446.98 33.88 448.31 C34.53 448.31 35.19 448.31 35.88 448.31 C38.8 455.85 39.38 465.12 37.11 472.96 C34.04 478.62 28.73 481.15 22.88 483.31 C19.14 483.95 15.52 483.96 11.74 483.89 C10.68 483.9 9.61 483.9 8.51 483.9 C6.22 483.9 3.92 483.89 1.63 483.87 C-2.01 483.84 -5.66 483.84 -9.3 483.85 C-18.34 483.87 -27.38 483.83 -36.43 483.8 C-44.08 483.77 -51.73 483.76 -59.38 483.78 C-62.96 483.78 -66.53 483.75 -70.1 483.72 C-82.96 483.69 -93.3 483.88 -103.88 492 C-106.36 494.01 -106.36 494.01 -106.12 496.31 C-106.79 496.31 -107.44 496.31 -108.12 496.31 C-116.15 506.66 -119.34 516.27 -118.12 529.31 C-117.43 532.48 -116.42 535.34 -115.12 538.31 C-114.54 539.8 -114.54 539.8 -113.94 541.31 C-109.46 548.72 -103.78 554.31 -96.12 558.31 C-95.51 558.66 -94.9 559.02 -94.27 559.38 C-88.41 561.93 -81.78 561.51 -75.51 561.59 C-74 561.62 -74 561.62 -72.45 561.65 C-68.14 561.73 -63.83 561.8 -59.52 561.86 C-56.37 561.92 -53.22 561.97 -50.07 562.03 C-49.09 562.04 -48.11 562.06 -47.1 562.07 C-46.2 562.09 -45.29 562.11 -44.37 562.12 C-43.57 562.14 -42.77 562.15 -41.95 562.16 C-40.12 562.31 -40.12 562.31 -39.12 563.31 C-39.02 564.65 -38.98 565.98 -38.97 567.32 C-38.96 568.17 -38.95 569.03 -38.94 569.9 C-38.93 570.83 -38.92 571.76 -38.91 572.72 C-38.89 574.68 -38.86 576.64 -38.83 578.6 C-38.79 581.7 -38.75 584.79 -38.72 587.89 C-38.7 590.87 -38.65 593.86 -38.6 596.84 C-38.6 597.76 -38.6 598.67 -38.59 599.61 C-38.4 609.6 -35.03 620.78 -28.12 628.31 C-27.47 628.31 -26.81 628.31 -26.12 628.31 C-26.12 628.97 -26.12 629.63 -26.12 630.31 C-15.95 638.25 -6.02 641.42 6.88 640.31 C14.09 638.76 22.38 635.35 27.88 630.31 C27.88 629.65 27.88 628.99 27.88 628.31 C28.53 628.31 29.19 628.31 29.88 628.31 C37.68 618.31 40.14 609.03 40.25 596.54 C40.28 595.03 40.28 595.03 40.31 593.49 C40.36 590.31 40.4 587.12 40.44 583.94 C40.48 580.73 40.53 577.52 40.58 574.32 C40.61 572.33 40.64 570.34 40.66 568.35 C40.68 567 40.68 567 40.7 565.64 C40.71 564.85 40.72 564.06 40.73 563.25 C40.88 561.31 40.88 561.31 41.88 559.31 C43.46 558.83 45.06 558.36 46.66 557.93 C59.02 554.48 71.02 548.61 80.88 540.31 C80.88 539.65 80.88 538.99 80.88 538.31 C81.45 538.07 82.02 537.82 82.61 537.56 C85.23 536.12 87.02 534.43 89.12 532.31 C89.83 531.61 90.54 530.91 91.27 530.19 C93.09 528.47 93.09 528.47 92.88 526.31 C93.53 526.31 94.19 526.31 94.88 526.31 C102.81 516.94 107.97 506.85 111.88 495.31 C112.14 494.62 112.41 493.93 112.68 493.21 C120.33 472.7 120.01 448.62 111.88 428.31 C111.55 427.43 111.23 426.55 110.89 425.64 C108.5 419.45 105.56 413.75 102.19 408.06 C101.79 407.39 101.4 406.73 101 406.04 C100.02 404.42 98.95 402.86 97.88 401.31 C97.22 401.31 96.56 401.31 95.88 401.31 C95.54 399.99 95.22 398.67 94.88 397.31 C94.22 397.31 93.56 397.31 92.88 397.31 C92.55 396.48 92.55 396.48 92.21 395.64 C90.45 392.58 88.09 390.4 85.5 388.06 C84.97 387.58 84.44 387.1 83.89 386.6 C64.43 369.33 41.03 361.97 15.29 362.07 C12.96 362.06 10.62 362.04 8.28 362.03 C4.66 362.01 1.03 362 -2.59 362.01 C-6.13 362.01 -9.67 361.98 -13.21 361.95 C-14.28 361.96 -15.36 361.97 -16.47 361.98 C-23.3 361.89 -27.86 360.77 -33.12 356.31 C-38.46 350.56 -39.64 346.1 -39.51 338.36 C-38.77 332.47 -35.81 328.88 -31.56 324.94 C-27.77 322.41 -25.14 321.06 -20.53 321.05 C-19.61 321.05 -18.69 321.04 -17.75 321.03 C-16.75 321.04 -15.75 321.04 -14.72 321.04 C-13.66 321.04 -12.6 321.03 -11.51 321.03 C-9.21 321.02 -6.91 321.01 -4.61 321.01 C-0.96 321 2.68 320.99 6.33 320.97 C16.69 320.91 27.06 320.88 37.42 320.86 C43.76 320.84 50.1 320.81 56.44 320.77 C58.85 320.76 61.26 320.75 63.67 320.75 C67.06 320.75 70.44 320.74 73.82 320.71 C74.81 320.72 75.8 320.72 76.82 320.73 C85.51 320.64 92.46 318.63 99.75 313.81 C100.65 313.22 101.56 312.64 102.49 312.03 C104.53 310.56 106.27 309.23 107.88 307.31 C107.88 306.65 107.88 305.99 107.88 305.31 C108.53 305.31 109.19 305.31 109.88 305.31 C115.95 295.37 119.71 285.52 117.37 273.78 C115.75 267.78 113.1 262.6 109.88 257.31 C109.22 257.31 108.56 257.31 107.88 257.31 C107.47 256.35 107.47 256.35 107.06 255.38 C105.99 252.98 105.99 252.98 102.88 252.31 C102.88 251.65 102.88 250.99 102.88 250.31 C100.91 248.78 100.91 248.78 98.38 247.31 C97.54 246.8 96.7 246.28 95.84 245.75 C88.88 242.38 82.07 241.99 74.47 241.9 C73.5 241.88 72.54 241.86 71.54 241.84 C68.49 241.78 65.43 241.73 62.38 241.69 C60.29 241.65 58.21 241.61 56.12 241.57 C51.04 241.47 45.96 241.39 40.88 241.31 C40.87 240.76 40.86 240.2 40.86 239.63 C40.79 233.8 40.71 227.98 40.61 222.15 C40.58 219.98 40.55 217.81 40.53 215.64 C40.49 212.51 40.44 209.38 40.39 206.25 C40.38 204.81 40.38 204.81 40.37 203.35 C40.15 193.22 36.89 181.97 29.88 174.31 C29.22 174.31 28.56 174.31 27.88 174.31 C27.88 173.65 27.88 172.99 27.88 172.31 C11.95 159.89 -10.37 157.87 -26.12 172.31 Z " fill="white" transform="translate(639.125,78.6875)"/>
<path d="M0 0 C2.14 -0 4.28 -0.01 6.42 -0.02 C10.87 -0.02 15.32 -0.02 19.77 -0.01 C25.47 -0 31.17 -0.02 36.87 -0.05 C41.27 -0.07 45.68 -0.07 50.08 -0.06 C52.18 -0.06 54.29 -0.07 56.39 -0.08 C59.32 -0.1 62.25 -0.09 65.18 -0.07 C66.04 -0.08 66.9 -0.09 67.79 -0.1 C71.88 -0.05 73.92 0.14 77.47 2.34 C79.39 4.43 79.39 4.43 79.39 6.43 C80.05 6.43 80.71 6.43 81.39 6.43 C82.98 8.04 82.98 8.04 84.77 10.18 C86.73 12.5 88.65 14.69 90.83 16.81 C92.39 18.43 92.39 18.43 92.39 20.43 C93.03 20.7 93.67 20.97 94.33 21.25 C96.39 22.43 96.39 22.43 97.39 25.43 C98.72 26.12 100.05 26.79 101.39 27.43 C102.65 28.6 103.85 29.81 105.02 31.06 C108.88 35.05 113.06 38.42 117.49 41.77 C118.12 42.32 118.75 42.87 119.39 43.43 C119.39 44.09 119.39 44.75 119.39 45.43 C119.95 45.68 120.5 45.92 121.07 46.17 C123.87 47.69 126.09 49.56 128.52 51.62 C133.04 55.39 137.68 58.79 142.59 62.02 C143.19 62.49 143.78 62.95 144.39 63.43 C144.39 64.09 144.39 64.75 144.39 65.43 C145.57 65.9 145.57 65.9 146.77 66.37 C149.39 67.43 149.39 67.43 151.39 68.43 C151.39 69.09 151.39 69.75 151.39 70.43 C152.17 70.8 152.17 70.8 152.96 71.18 C156.17 72.83 159.27 74.63 162.39 76.43 C162.39 77.09 162.39 77.75 162.39 78.43 C162.95 78.53 163.5 78.63 164.07 78.73 C166.95 79.6 169.07 80.98 171.58 82.62 C172.55 83.25 173.52 83.88 174.52 84.53 C177.05 86.21 179.57 87.91 182.08 89.62 C186.04 92.28 190.09 94.4 194.39 96.43 C194.39 97.09 194.39 97.75 194.39 98.43 C194.96 98.56 195.52 98.68 196.1 98.8 C198.58 99.49 200.8 100.43 203.14 101.5 C203.94 101.86 204.74 102.22 205.57 102.59 C206.17 102.87 206.77 103.15 207.39 103.43 C207.39 104.09 207.39 104.75 207.39 105.43 C208.43 105.57 208.43 105.57 209.48 105.71 C213.03 106.59 215.93 108.21 219.08 110 C230.26 116.13 241.91 121.38 253.95 125.57 C258.96 127.34 263.87 129.36 268.75 131.43 C274.69 133.91 280.7 135.73 286.9 137.43 C290.03 138.33 293.08 139.35 296.14 140.43 C302.16 142.5 308.29 143.83 314.52 145.13 C320.3 146.34 320.3 146.34 321.39 147.43 C324.85 148.1 328.31 148.67 331.79 149.24 C332.9 149.43 332.9 149.43 334.03 149.62 C334.7 149.73 335.37 149.83 336.06 149.95 C338.39 150.43 338.39 150.43 341.71 151.42 C345.4 152.44 348.92 153.01 352.72 153.47 C353.39 153.55 354.06 153.64 354.75 153.72 C356.86 153.99 358.97 154.24 361.08 154.5 C363.21 154.76 365.33 155.02 367.45 155.28 C369.37 155.52 371.29 155.75 373.21 155.98 C376.39 156.43 376.39 156.43 378.52 156.97 C380.82 157.54 382.98 157.63 385.35 157.71 C386.3 157.75 387.25 157.79 388.22 157.83 C389.21 157.86 390.19 157.9 391.21 157.93 C393.15 158 395.1 158.08 397.04 158.15 C397.9 158.18 398.76 158.21 399.64 158.24 C402.39 158.43 402.39 158.43 405.6 158.94 C410.24 159.54 414.78 159.58 419.46 159.57 C420.41 159.57 421.36 159.57 422.34 159.57 C424.34 159.57 426.34 159.57 428.34 159.56 C431.38 159.56 434.43 159.56 437.48 159.57 C439.43 159.57 441.38 159.57 443.33 159.57 C444.24 159.57 445.14 159.57 446.07 159.57 C450.95 159.55 455.57 159.2 460.39 158.43 C462.08 158.32 463.78 158.24 465.47 158.19 C466.38 158.16 467.28 158.12 468.22 158.09 C469.64 158.04 469.64 158.04 471.08 158 C477.84 157.73 484.38 157.34 491.03 156.03 C494.88 155.35 498.73 154.89 502.61 154.43 C511.96 153.3 520.94 151.79 530.04 149.34 C532.8 148.59 535.52 147.96 538.33 147.43 C548.88 145.41 559.29 142.99 569.43 139.43 C572.76 138.31 576.13 137.37 579.52 136.43 C584.37 135.07 589 133.51 593.65 131.56 C596.45 130.41 599.28 129.36 602.13 128.32 C608.98 125.81 615.61 123.05 622.21 119.92 C625.44 118.41 628.72 117.04 632.02 115.68 C642.44 111.26 652.55 105.93 662.27 100.13 C665.39 98.43 665.39 98.43 668.39 98.43 C668.39 97.77 668.39 97.11 668.39 96.43 C670.04 96.1 671.69 95.77 673.39 95.43 C673.39 94.77 673.39 94.11 673.39 93.43 C674.13 93.05 674.87 92.66 675.62 92.26 C680.58 89.62 685.07 87.03 689.39 83.43 C692.86 81.2 696.27 79.09 700.39 78.43 C700.39 77.77 700.39 77.11 700.39 76.43 C702.29 74.93 702.29 74.93 704.77 73.31 C705.99 72.5 705.99 72.5 707.23 71.68 C709.39 70.43 709.39 70.43 711.39 70.43 C711.39 69.77 711.39 69.11 711.39 68.43 C715.78 65.43 715.78 65.43 718.39 65.43 C718.39 64.77 718.39 64.11 718.39 63.43 C719.95 62.18 721.57 61.01 723.21 59.87 C728.38 56.22 733.25 52.31 738.08 48.22 C740.39 46.43 740.39 46.43 743.39 45.43 C743.39 44.77 743.39 44.11 743.39 43.43 C744.99 42.02 746.65 40.68 748.33 39.37 C753.12 35.56 757.42 31.53 761.62 27.09 C763.39 25.43 763.39 25.43 765.39 25.43 C765.66 24.79 765.93 24.15 766.21 23.5 C767.39 21.43 767.39 21.43 770.39 20.43 C771.08 19.11 771.74 17.77 772.39 16.43 C773.7 15.02 775.06 13.64 776.46 12.31 C779.31 9.65 779.31 9.65 781.39 6.43 C782.05 6.43 782.71 6.43 783.39 6.43 C783.66 5.81 783.93 5.2 784.21 4.56 C785.39 2.43 785.39 2.43 788.39 0.43 C791.42 0.23 794.35 0.15 797.37 0.16 C798.29 0.15 799.21 0.15 800.16 0.14 C803.21 0.13 806.26 0.13 809.31 0.13 C811.44 0.13 813.57 0.12 815.7 0.12 C820.18 0.11 824.65 0.11 829.13 0.12 C834.82 0.12 840.52 0.11 846.21 0.08 C850.62 0.07 855.03 0.07 859.44 0.07 C861.53 0.07 863.63 0.07 865.72 0.06 C880.79 -0.01 896.08 0.12 910.07 6.41 C912.64 7.54 915.24 8.42 917.89 9.31 C922.76 11.04 926.96 13.38 931.3 16.16 C933.46 17.58 933.46 17.58 936.39 18.43 C936.39 19.09 936.39 19.75 936.39 20.43 C937.1 20.68 937.8 20.93 938.52 21.18 C941.79 22.61 944.54 24.31 947.39 26.43 C947.39 27.09 947.39 27.75 947.39 28.43 C947.93 28.66 948.47 28.89 949.02 29.12 C955.18 32.53 960.21 37.82 964.39 43.43 C964.39 44.09 964.39 44.75 964.39 45.43 C965.05 45.43 965.71 45.43 966.39 45.43 C967.9 47.33 967.9 47.33 969.52 49.81 C970.06 50.62 970.6 51.43 971.15 52.27 C972.39 54.43 972.39 54.43 972.39 56.43 C973.05 56.43 973.71 56.43 974.39 56.43 C983.95 75.11 992.56 93.74 992.53 115.18 C992.54 116.33 992.54 116.33 992.54 117.49 C992.55 120.03 992.55 122.58 992.56 125.12 C992.56 126.95 992.57 128.77 992.57 130.6 C992.58 135.56 992.59 140.52 992.59 145.48 C992.6 148.58 992.6 151.69 992.61 154.79 C992.62 164.52 992.63 174.25 992.63 183.98 C992.64 195.17 992.66 206.37 992.68 217.57 C992.71 226.24 992.72 234.92 992.72 243.59 C992.72 248.77 992.72 253.94 992.74 259.11 C992.76 263.98 992.76 268.86 992.75 273.73 C992.75 275.51 992.76 277.28 992.77 279.06 C992.84 293.14 991.65 306.74 986.64 320.06 C986.39 320.75 986.14 321.44 985.88 322.16 C983.25 329.19 979.91 335.81 976.39 342.43 C975.72 343.76 975.05 345.1 974.39 346.43 C973.73 346.43 973.07 346.43 972.39 346.43 C972.15 347.13 971.9 347.84 971.64 348.56 C970.22 351.83 968.52 354.57 966.39 357.43 C965.73 357.43 965.07 357.43 964.39 357.43 C964.17 357.97 963.94 358.51 963.71 359.06 C960.3 365.22 955.01 370.25 949.39 374.43 C948.73 374.43 948.07 374.43 947.39 374.43 C947.39 375.09 947.39 375.75 947.39 376.43 C945.5 377.94 945.5 377.94 943.02 379.56 C942.21 380.1 941.4 380.64 940.56 381.19 C938.39 382.43 938.39 382.43 936.39 382.43 C936.39 383.09 936.39 383.75 936.39 384.43 C933.45 385.91 930.5 387.38 927.55 388.85 C925.78 389.74 924.01 390.64 922.27 391.58 C917.09 394.37 911.7 395.98 906.05 397.6 C903.5 398.18 903.5 398.18 902.39 399.43 C891.3 401.97 880.53 402.87 869.17 402.81 C867.6 402.81 866.04 402.82 864.48 402.82 C860.21 402.84 855.95 402.83 851.69 402.82 C847.04 402.81 842.39 402.82 837.74 402.83 C829.6 402.84 821.46 402.84 813.33 402.83 C801.22 402.82 789.12 402.83 777.02 402.84 C755.4 402.85 733.79 402.85 712.17 402.84 C693.26 402.83 674.34 402.83 655.42 402.84 C654.17 402.84 652.91 402.84 651.62 402.84 C646.52 402.84 641.43 402.84 636.33 402.84 C600.78 402.85 565.22 402.85 529.66 402.84 C528.99 402.84 528.32 402.84 527.63 402.83 C516.76 402.83 505.88 402.83 495.01 402.82 C451.87 402.81 408.74 402.81 365.61 402.82 C354.74 402.83 343.86 402.83 332.99 402.84 C331.99 402.84 331.99 402.84 330.96 402.84 C294.81 402.85 258.65 402.84 222.49 402.84 C217.4 402.84 212.32 402.84 207.23 402.84 C205.35 402.83 205.35 402.83 203.44 402.83 C184.53 402.83 165.63 402.83 146.72 402.84 C125.23 402.85 103.73 402.85 82.24 402.83 C70.21 402.82 58.18 402.82 46.15 402.83 C38.12 402.84 30.08 402.84 22.04 402.82 C17.47 402.82 12.89 402.81 8.31 402.83 C4.14 402.84 -0.03 402.83 -4.2 402.82 C-5.7 402.81 -7.19 402.81 -8.68 402.82 C-21.85 402.89 -34.83 401.35 -47.23 396.68 C-47.93 396.43 -48.63 396.17 -49.35 395.91 C-66.76 389.35 -89.38 377.92 -98.92 361.12 C-99.14 360.56 -99.37 360.01 -99.61 359.43 C-100.27 359.43 -100.93 359.43 -101.61 359.43 C-101.61 358.77 -101.61 358.11 -101.61 357.43 C-102.27 357.43 -102.93 357.43 -103.61 357.43 C-105.11 355.54 -105.11 355.54 -106.73 353.06 C-107.27 352.25 -107.81 351.43 -108.36 350.6 C-109.61 348.43 -109.61 348.43 -109.61 346.43 C-110.27 346.43 -110.93 346.43 -111.61 346.43 C-113.08 343.48 -114.56 340.53 -116.02 337.58 C-116.9 335.84 -117.79 334.1 -118.72 332.38 C-128.06 315.04 -130.07 295.92 -129.99 276.61 C-130 274.78 -130 272.96 -130.01 271.13 C-130.02 266.21 -130.02 261.29 -130.01 256.38 C-130 251.2 -130.01 246.02 -130.01 240.85 C-130.02 232.16 -130.01 223.47 -130 214.78 C-129.98 204.78 -129.99 194.77 -130 184.76 C-130.02 176.13 -130.02 167.5 -130.01 158.87 C-130.01 153.73 -130 148.59 -130.01 143.45 C-130.02 138.62 -130.02 133.79 -130 128.95 C-130 127.19 -130 125.43 -130 123.67 C-130.08 101.61 -125.85 80.35 -113.84 61.49 C-112.46 59.36 -112.46 59.36 -111.61 56.43 C-110.95 56.43 -110.29 56.43 -109.61 56.43 C-109.36 55.73 -109.11 55.03 -108.86 54.31 C-107.43 51.04 -105.73 48.29 -103.61 45.43 C-102.95 45.43 -102.29 45.43 -101.61 45.43 C-101.38 44.9 -101.15 44.36 -100.92 43.81 C-97.51 37.64 -92.22 32.62 -86.61 28.43 C-85.95 28.43 -85.29 28.43 -84.61 28.43 C-84.61 27.77 -84.61 27.11 -84.61 26.43 C-82.71 24.93 -82.71 24.93 -80.23 23.31 C-79.42 22.77 -78.61 22.23 -77.77 21.68 C-75.61 20.43 -75.61 20.43 -73.61 20.43 C-73.61 19.77 -73.61 19.11 -73.61 18.43 C-70.65 16.96 -67.7 15.48 -64.75 14.02 C-63.01 13.14 -61.27 12.25 -59.55 11.32 C-40.92 1.28 -20.67 -0.04 0 0 Z M84.39 212.43 C84.39 213.09 84.39 213.75 84.39 214.43 C83.73 214.43 83.07 214.43 82.39 214.43 C74.46 224.61 71.29 234.54 72.39 247.43 C73.95 254.65 77.36 262.94 82.39 268.43 C83.05 268.43 83.71 268.43 84.39 268.43 C84.39 269.09 84.39 269.75 84.39 270.43 C94.55 278.36 103.85 280.74 116.54 280.69 C117.64 280.69 118.75 280.69 119.89 280.7 C123.61 280.71 127.33 280.7 131.05 280.69 C133.74 280.7 136.43 280.7 139.12 280.71 C144.97 280.71 150.82 280.72 156.68 280.71 C165.38 280.71 174.08 280.71 182.79 280.72 C199.23 280.74 215.68 280.74 232.13 280.74 C244.83 280.73 257.53 280.74 270.23 280.74 C272.05 280.74 273.87 280.74 275.7 280.74 C278.45 280.74 281.2 280.74 283.94 280.74 C309.5 280.75 335.06 280.76 360.62 280.75 C361.58 280.75 362.54 280.75 363.54 280.75 C368.42 280.75 373.3 280.75 378.19 280.75 C379.16 280.75 380.13 280.75 381.13 280.75 C383.09 280.75 385.05 280.75 387.01 280.75 C417.54 280.74 448.06 280.75 478.59 280.77 C512.88 280.79 547.17 280.8 581.46 280.8 C585.12 280.8 588.77 280.8 592.43 280.8 C593.33 280.8 594.23 280.8 595.16 280.8 C608.75 280.79 622.35 280.8 635.94 280.81 C651.4 280.82 666.85 280.83 682.31 280.81 C690.96 280.81 699.62 280.81 708.27 280.82 C714.05 280.83 719.82 280.83 725.6 280.82 C728.9 280.81 732.19 280.81 735.48 280.82 C739.03 280.83 742.58 280.82 746.13 280.81 C747.66 280.82 747.66 280.82 749.22 280.83 C759.41 280.75 770.68 277.5 778.39 270.43 C778.39 269.77 778.39 269.11 778.39 268.43 C779.05 268.43 779.71 268.43 780.39 268.43 C788.33 258.25 791.5 248.33 790.39 235.43 C788.84 228.22 785.43 219.92 780.39 214.43 C779.73 214.43 779.07 214.43 778.39 214.43 C778.39 213.77 778.39 213.11 778.39 212.43 C768.23 204.51 758.94 202.12 746.25 202.18 C744.59 202.17 744.59 202.17 742.9 202.17 C739.18 202.16 735.46 202.17 731.74 202.17 C729.05 202.17 726.36 202.17 723.67 202.16 C717.82 202.15 711.97 202.15 706.11 202.15 C697.41 202.16 688.71 202.15 680 202.15 C663.56 202.13 647.11 202.13 630.66 202.13 C617.96 202.13 605.26 202.13 592.56 202.13 C590.74 202.13 588.92 202.13 587.09 202.13 C584.34 202.12 581.59 202.12 578.84 202.12 C553.29 202.11 527.73 202.11 502.17 202.11 C501.21 202.11 500.25 202.11 499.25 202.11 C494.37 202.12 489.49 202.12 484.6 202.12 C483.63 202.12 482.66 202.12 481.66 202.12 C479.7 202.12 477.74 202.12 475.78 202.12 C445.25 202.12 414.72 202.12 384.2 202.1 C349.91 202.08 315.62 202.07 281.33 202.07 C277.67 202.07 274.01 202.07 270.36 202.07 C269.46 202.07 268.56 202.07 267.63 202.07 C254.04 202.07 240.44 202.07 226.85 202.06 C211.39 202.04 195.93 202.04 180.48 202.05 C171.83 202.06 163.17 202.06 154.52 202.05 C148.74 202.04 142.96 202.04 137.19 202.05 C133.89 202.06 130.6 202.06 127.31 202.05 C123.76 202.04 120.21 202.05 116.66 202.06 C115.13 202.05 115.13 202.05 113.57 202.04 C103.37 202.11 92.11 205.37 84.39 212.43 Z " fill="white" transform="translate(208.60546875,798.56640625)"/>
</svg>
