<?xml version="1.0" encoding="UTF-8"?>
<!-- Generator: visioncortex VTracer 0.6.3 -->
<svg version="1.1" xmlns="http://www.w3.org/2000/svg" width="1280" height="1280">
<path d="M0 0 C7.08 -0.03 14.17 -0.04 21.25 -0.05 C23.66 -0.06 26.08 -0.07 28.49 -0.08 C31.95 -0.09 35.41 -0.09 38.87 -0.1 C39.95 -0.1 41.03 -0.11 42.15 -0.11 C43.15 -0.11 44.15 -0.11 45.18 -0.11 C46.07 -0.12 46.95 -0.12 47.86 -0.12 C50 0 50 0 52 1 C54.13 1.13 56.27 1.2 58.41 1.25 C59.71 1.28 61.01 1.31 62.35 1.35 C64.41 1.39 66.48 1.44 68.54 1.48 C75.84 1.62 82.81 1.9 89.93 3.54 C92.65 4.15 95.35 4.38 98.12 4.56 C99.14 4.64 100.15 4.71 101.2 4.79 C102.12 4.86 103.05 4.93 104 5 C108.83 5.4 113.31 6.31 118 7.56 C121.53 8.49 124.66 9.18 128.31 9.06 C132.33 8.99 135.19 9.8 139 11 C140.37 11.33 141.75 11.64 143.12 11.94 C143.89 12.11 144.66 12.27 145.45 12.45 C146.29 12.63 147.13 12.81 148 13 C156.36 14.82 164.6 16.94 172.82 19.29 C178.51 20.9 184.16 22.05 190 23 C190 23.66 190 24.32 190 25 C190.64 25.12 191.28 25.24 191.94 25.37 C193.24 25.62 193.24 25.62 194.56 25.88 C195.83 26.12 195.83 26.12 197.13 26.37 C203.7 27.81 209.83 30.02 216.06 32.5 C221.01 34.46 225.94 36.34 231 38 C237.42 40.34 243.7 42.74 249.75 45.92 C252.75 47.36 255.83 48.5 258.94 49.69 C266.16 52.49 272.89 55.99 279.7 59.69 C284.65 62.37 289.68 64.87 294.74 67.35 C298.26 69.09 301.65 70.94 305 73 C305.66 73.33 306.32 73.66 307 74 C307 74.66 307 75.32 307 76 C307.68 76.1 308.36 76.21 309.06 76.31 C314.86 77.67 318.94 79.66 323 84 C324.32 84.68 325.66 85.35 327 86 C327.78 86.64 328.57 87.28 329.38 87.94 C331.91 90.07 331.91 90.07 334.75 91.38 C339.06 93.53 343.23 95.99 347 99 C347 99.66 347 100.32 347 101 C347.56 101.1 348.11 101.21 348.69 101.31 C351.47 102.14 353.6 103.38 356 105 C356.33 105.66 356.66 106.32 357 107 C358.15 107.5 359.31 107.99 360.5 108.5 C364 110 364 110 365 112 C367.07 115.11 367.76 115.57 371 117 C374.24 118.43 374.93 118.89 377 122 C377.99 122.33 378.98 122.66 380 123 C380 123.66 380 124.32 380 125 C381.98 125.66 383.96 126.32 386 127 C386 127.99 386 128.98 386 130 C386.99 130.33 387.98 130.66 389 131 C389.66 131.33 390.32 131.66 391 132 C391.33 132.99 391.66 133.98 392 135 C394.38 136.61 394.38 136.61 397 138 C397.99 138.66 398.98 139.32 400 140 C400 140.66 400 141.32 400 142 C400.75 142.09 401.51 142.18 402.28 142.27 C405.51 143.14 406.43 144.12 408.5 146.69 C409.09 147.4 409.69 148.12 410.3 148.86 C411.35 150.18 412.4 151.5 413.45 152.83 C416.13 156.2 416.13 156.2 420 158 C420 158.66 420 159.32 420 160 C420.66 160 421.32 160 422 160 C423.62 161.37 423.62 161.37 425 163 C425 163.66 425 164.32 425 165 C425.99 165 426.98 165 428 165 C429.23 166.69 430.44 168.39 431.6 170.12 C432.99 171.99 434.36 173.26 436.19 174.69 C439 177 439 177 439.95 178.92 C441.17 181.34 442.65 182.78 444.62 184.62 C446.54 186.41 446.54 186.41 448 188 C448 188.66 448 189.32 448 190 C448.66 190 449.32 190 450 190 C450 190.66 450 191.32 450 192 C450.99 192.33 451.98 192.66 453 193 C453 193.66 453 194.32 453 195 C453.66 195 454.32 195 455 195 C459 199.47 459 199.47 459 202 C459.66 202 460.32 202 461 202 C462.01 203.66 463.01 205.33 464 207 C465.35 208.68 466.77 210.29 468.18 211.91 C470.39 214.45 472.54 217.03 474.69 219.62 C475.43 220.52 476.18 221.42 476.95 222.35 C478.86 224.82 480.43 227.31 482 230 C484.03 232.61 486.13 235.15 488.25 237.69 C490 240 490 240 490 242 C490.66 242 491.32 242 492 242 C494 245 494 245 494 248 C494.66 248 495.32 248 496 248 C496.5 248.89 496.99 249.79 497.5 250.71 C501.18 257.28 504.98 263.57 509.4 269.68 C511.46 272.67 513.18 275.78 514.86 278.99 C515.98 281.08 515.98 281.08 517.64 283.07 C519 285 519 285 519 288 C519.66 288 520.32 288 521 288 C522.42 291.32 523.39 294.44 524 298 C524.66 298 525.32 298 526 298 C527.42 301.32 528.39 304.44 529 308 C529.99 308.33 530.98 308.66 532 309 C533.12 310.78 533.12 310.78 534.16 313.08 C534.54 313.91 534.92 314.74 535.32 315.6 C535.71 316.47 536.1 317.35 536.5 318.25 C537.28 319.96 538.06 321.68 538.84 323.39 C539.21 324.2 539.58 325 539.96 325.83 C541.04 328.17 541.04 328.17 542.77 330.93 C544.26 333.44 544.25 335.13 544 338 C544.66 338 545.32 338 546 338 C548.9 344.42 548.9 344.42 549.44 347.44 C550 349.99 550.84 351.71 552.06 354 C553.72 357.15 554.45 359.37 554 363 C554.66 363 555.32 363 556 363 C558.22 367.62 559.38 370.77 559 376 C559.66 376 560.32 376 561 376 C562.89 380.65 564.15 383.96 564 389 C564.66 389.66 565.32 390.32 566 391 C566.73 393.32 567.38 395.65 568 398 C568.31 399.07 568.62 400.14 568.94 401.25 C569.8 404.29 570.62 407.33 571.44 410.38 C572.38 413.88 573.42 417.32 574.62 420.75 C575.91 424.47 576.46 428.09 577 432 C577.35 432.64 577.7 433.28 578.06 433.94 C579.11 436.24 579.07 437.56 579 440.06 C578.64 444.05 578.64 444.05 581 447 C581.34 449.34 581.34 449.34 581.5 451.94 C581.66 454.67 581.8 456.6 583.03 459.06 C584.15 461.29 584.15 462.6 584 465.06 C583.64 469.05 583.64 469.05 586 472 C586.34 474.67 586.34 474.67 586.5 477.75 C586.68 481.18 587.01 484.04 588 487.34 C589.15 491.55 589.41 495.42 589.56 499.75 C589.74 505.46 589.74 505.46 591 511 C591.22 513.06 591.41 515.12 591.56 517.19 C591.65 518.27 591.73 519.36 591.82 520.48 C591.88 521.31 591.94 522.14 592 523 C592.33 523 592.66 523 593 523 C593 525.31 593 527.62 593 530 C594.9 529.98 594.9 529.98 596.84 529.97 C601.55 529.93 606.27 529.91 610.99 529.89 C613.02 529.88 615.06 529.87 617.1 529.85 C620.04 529.82 622.97 529.81 625.91 529.8 C626.81 529.79 627.72 529.78 628.65 529.77 C635.52 529.77 641.12 530.79 647.25 534.06 C649.53 535.27 651.53 536.18 654 537 C654.14 537.64 654.29 538.28 654.44 538.94 C654.62 539.62 654.81 540.3 655 541 C655.58 541.27 656.15 541.54 656.75 541.81 C660.23 543.65 662.17 546.57 664 550 C664.31 552.94 664.31 552.94 664 555 C664.99 555.33 665.98 555.66 667 556 C667.15 559.81 667.23 563.62 667.31 567.44 C667.35 568.51 667.4 569.58 667.44 570.68 C667.55 578.14 666.32 582.91 662 589 C661.43 589.82 660.86 590.64 660.27 591.49 C659.79 592.09 659.31 592.69 658.81 593.31 C657.36 595.14 656.1 596.79 655.07 598.89 C653.68 601.64 651.9 603.97 650.06 606.44 C647.06 610.47 644.25 614.49 642 619 C641.34 619 640.68 619 640 619 C639.75 619.54 639.51 620.07 639.25 620.62 C637.7 623.56 635.87 626.26 634 629 C630.8 633.75 627.66 638.52 624.62 643.38 C620.39 650.06 615.81 656.5 610.86 662.67 C608.99 665.02 607.52 667.41 606 670 C604.21 672.74 602.42 675.45 600.44 678.06 C598.94 680 598.94 680 597.69 682.25 C596.23 684.62 594.7 686.74 593 688.94 C590.56 692.13 588.66 695.32 587 699 C586.34 699 585.68 699 585 699 C584.75 699.54 584.51 700.07 584.25 700.62 C582.7 703.56 580.87 706.26 579 709 C575.8 713.75 572.66 718.52 569.62 723.38 C565.39 730.06 560.81 736.5 555.86 742.67 C553.99 745.02 552.52 747.41 551 750 C549.21 752.74 547.42 755.45 545.44 758.06 C543.94 760 543.94 760 542.69 762.25 C541.23 764.62 539.7 766.74 538 768.94 C535.56 772.13 533.66 775.32 532 779 C531.34 779 530.68 779 530 779 C529.75 779.54 529.51 780.07 529.25 780.62 C524.73 789.21 518.76 795.78 510 800 C507.19 800.69 507.19 800.69 505 801 C504.34 801.33 503.68 801.66 503 802 C490.24 802.9 478.97 801.46 469 793 C464.3 788.4 460.09 783.73 457.1 777.85 C455.06 774.42 452.37 771.47 449.8 768.43 C448.01 766.01 447.09 763.78 446 761 C445.34 760.67 444.68 760.34 444 760 C443.16 758.61 442.37 757.19 441.62 755.75 C439.71 752.17 437.59 749.14 435 746 C434.67 745.01 434.34 744.02 434 743 C433.57 742.57 433.13 742.13 432.69 741.69 C430.91 739.91 429.61 737.99 428.24 735.88 C426.11 732.65 423.83 729.52 421.59 726.37 C420.19 724.29 419.11 722.23 418 720 C417.1 719.13 417.1 719.13 416.19 718.25 C413.16 715.13 409 710.53 409 706 C408.34 706 407.68 706 407 706 C406.2 704.51 406.2 704.51 405.38 703 C403.3 699.35 400.87 696.09 398.27 692.8 C397 691 397 691 396 688 C395.34 687.53 394.68 687.05 394 686.56 C391.66 684.74 391.56 683.81 391 681 C390.34 680.67 389.68 680.34 389 680 C388.16 678.61 387.37 677.19 386.62 675.75 C384.71 672.17 382.59 669.14 380 666 C379.67 665.01 379.34 664.02 379 663 C378.57 662.57 378.13 662.13 377.69 661.69 C375.91 659.91 374.61 657.99 373.24 655.88 C371.11 652.65 368.83 649.52 366.59 646.37 C365.19 644.29 364.11 642.23 363 640 C362.1 639.13 362.1 639.13 361.19 638.25 C358.16 635.13 354 630.53 354 626 C353.34 626 352.68 626 352 626 C350.77 624.16 350.77 624.16 349.38 621.62 C346.58 616.77 343.36 612.58 339.73 608.32 C337.97 605.95 337.07 603.73 336 601 C335.34 600.67 334.68 600.34 334 600 C330 593.65 330 593.65 330 590 C329.01 589.67 328.02 589.34 327 589 C325.74 586.82 324.75 584.82 323.81 582.5 C323.41 581.52 323.41 581.52 323 580.51 C320.13 572.76 320.46 565.13 321 557 C321.66 557 322.32 557 323 557 C323.1 556.09 323.21 555.18 323.31 554.25 C324.02 550.9 324.85 549.58 327 547 C327.3 546.37 327.59 545.75 327.89 545.11 C331.22 538.76 337.22 534.53 343.93 532.38 C345.61 531.89 347.3 531.44 349 531 C349 530.67 349 530.34 349 530 C363.19 529.67 377.38 529.34 392 529 C391.34 524.38 390.68 519.76 390 515 C389.59 510.95 389.2 506.91 388.88 502.86 C388.42 497.97 387.38 493.7 385.72 489.07 C384.76 486.32 384.12 483.54 383.5 480.69 C383.25 479.58 383 478.48 382.75 477.34 C382.5 476.24 382.25 475.14 382 474 C380.56 467.84 379.09 461.81 376.75 455.92 C375.35 452.33 374.2 448.66 373 445 C372.48 443.42 371.96 441.83 371.44 440.25 C371.21 439.55 370.98 438.86 370.75 438.14 C369.9 435.73 368.96 433.37 368 431 C367.64 430.1 367.29 429.2 366.92 428.27 C364.44 422.15 361.65 416.41 358.41 410.66 C356.65 407.34 355.34 403.92 354 400.42 C351.26 393.79 347.3 387.59 343.44 381.56 C341.88 378.78 340.92 376.04 340 373 C339.34 373 338.68 373 338 373 C337.75 372.24 337.5 371.47 337.25 370.69 C336.24 367.94 336.24 367.94 334.12 366.69 C331.54 364.63 330.64 362.35 329.28 359.4 C327.15 355.41 324.35 351.91 321.61 348.32 C320 346 320 346 320 344 C319.34 344 318.68 344 318 344 C318 343.34 318 342.68 318 342 C317.34 341.67 316.68 341.34 316 341 C312.26 339.13 310.76 334.66 309 331 C308.34 331 307.68 331 307 331 C306.67 330.01 306.34 329.02 306 328 C305.2 327.57 304.39 327.13 303.56 326.69 C300.27 324.52 300.17 322.66 299 319 C297 317.79 297 317.79 295 317 C294.67 316.01 294.34 315.02 294 314 C293.01 313.67 292.02 313.34 291 313 C291 312.34 291 311.68 291 311 C290.34 311 289.68 311 289 311 C289 310.34 289 309.68 289 309 C288.01 308.67 287.02 308.34 286 308 C286 307.34 286 306.68 286 306 C285.34 306 284.68 306 284 306 C284 305.34 284 304.68 284 304 C283.01 303.67 282.02 303.34 281 303 C281 302.34 281 301.68 281 301 C280.34 301 279.68 301 279 301 C279 300.34 279 299.68 279 299 C278.01 298.67 277.02 298.34 276 298 C276 297.34 276 296.68 276 296 C275.42 295.74 274.83 295.47 274.23 295.2 C271.91 293.95 270.2 292.58 268.25 290.81 C267.55 290.19 266.85 289.56 266.13 288.92 C264.78 287.7 263.43 286.49 262.09 285.27 C257.5 281.16 252.69 277.5 247.68 273.92 C245.31 272.22 242.99 270.47 240.69 268.69 C237.62 266.37 234.51 264.58 231 263 C231 262.34 231 261.68 231 261 C230.28 260.75 229.56 260.5 228.81 260.25 C225.74 258.88 223.62 257.11 221 255 C219.01 253.97 217.01 252.98 215 252 C211 250 207 248 203 246 C203 245.34 203 244.68 203 244 C201.35 243.67 199.7 243.34 198 243 C197.67 242.01 197.34 241.02 197 240 C196.28 239.88 195.56 239.75 194.81 239.62 C192.04 239.01 189.6 238.12 187 237 C187 236.34 187 235.68 187 235 C185.42 234.85 185.42 234.85 183.81 234.69 C179.95 233.99 178.26 233.05 175 231 C171.7 229.58 168.36 228.28 165 227 C165 226.34 165 225.68 165 225 C163.87 224.92 162.73 224.84 161.56 224.75 C157.3 224.24 153.94 222.75 150.09 220.91 C147.91 219.86 147.91 219.86 145 219.5 C141.37 218.89 138.5 217.47 135.19 215.92 C132.5 214.79 129.88 214.36 127 214 C126.67 213.67 126.34 213.34 126 213 C122.67 212.34 119.34 211.76 115.99 211.19 C112.32 210.55 109.27 209.77 106 208 C104 207.74 102 207.49 99.99 207.28 C98 207 98 207 95.25 206 C91.05 204.71 86.98 204.51 82.61 204.25 C80 204 80 204 78 203 C74.89 202.72 71.77 202.55 68.65 202.38 C65 202 65 202 61.13 200.99 C54.86 199.58 48.61 199.71 42.21 199.73 C40.9 199.73 39.6 199.73 38.25 199.73 C35.51 199.73 32.76 199.73 30.02 199.74 C26.51 199.75 23 199.74 19.5 199.73 C16.13 199.72 12.76 199.73 9.39 199.73 C8.14 199.73 6.89 199.73 5.6 199.72 C3.84 199.73 3.84 199.73 2.05 199.74 C1.02 199.74 -0 199.74 -1.06 199.75 C-4.3 200.03 -6.96 200.89 -10 202 C-12.23 202.3 -12.23 202.3 -14.27 202.38 C-15.01 202.41 -15.76 202.45 -16.52 202.48 C-17.66 202.52 -17.66 202.52 -18.81 202.56 C-23.8 202.31 -23.8 202.31 -28 204 C-30.33 204.35 -32.66 204.66 -35 204.94 C-42.1 205.83 -48.89 207.07 -55.75 209.12 C-58.71 209.92 -60.98 210 -64 210 C-64.66 210.66 -65.32 211.32 -66 212 C-69.91 213.3 -73.76 214.15 -77.81 214.88 C-82.38 215.74 -86.43 217.24 -90.68 219.1 C-93 220 -93 220 -95.54 220.5 C-98.04 221.01 -99.83 221.79 -102.06 223 C-104.71 224.43 -107.07 225.32 -110 226 C-112.69 226.94 -115.34 227.97 -118 229 C-118.82 229.31 -119.65 229.62 -120.5 229.94 C-124.08 231.46 -127.53 233.24 -131 235 C-132.62 235.81 -134.25 236.63 -135.88 237.44 C-136.72 237.86 -137.56 238.28 -138.42 238.71 C-140.14 239.57 -141.86 240.42 -143.58 241.25 C-144.42 241.67 -145.26 242.08 -146.12 242.5 C-146.87 242.86 -147.62 243.22 -148.38 243.59 C-153.48 246.33 -158.3 249.55 -163.18 252.68 C-165.24 253.99 -165.24 253.99 -167.31 255.31 C-168.37 255.99 -168.37 255.99 -169.44 256.69 C-170.12 257.12 -170.79 257.55 -171.49 257.99 C-172.09 258.38 -172.7 258.76 -173.32 259.16 C-175 260 -175 260 -178 260 C-178.33 260.99 -178.66 261.98 -179 263 C-180.67 264.25 -180.67 264.25 -182.75 265.44 C-186.07 267.41 -189.01 269.56 -192 272 C-192.95 272.62 -193.9 273.24 -194.88 273.88 C-199.29 276.88 -203.19 280.37 -207.15 283.94 C-207.87 284.58 -208.58 285.22 -209.31 285.88 C-209.97 286.47 -210.62 287.07 -211.3 287.68 C-213 289 -213 289 -215 289 C-215 289.66 -215 290.32 -215 291 C-216.69 292.48 -216.69 292.48 -219 294.19 C-232.7 304.53 -232.7 304.53 -243 318 C-244.57 320.13 -246.22 322.03 -248 324 C-248.66 324 -249.32 324 -250 324 C-250 324.66 -250 325.32 -250 326 C-250.66 326 -251.32 326 -252 326 C-252.34 326.8 -252.34 326.8 -252.69 327.62 C-254.81 331.46 -257.75 334.61 -260.67 337.85 C-264.36 341.95 -267.53 346.13 -270.52 350.77 C-272.42 353.64 -274.5 356.36 -276.61 359.08 C-278.22 361.31 -279.59 363.63 -281 366 C-282.89 368.92 -284.78 371.84 -286.68 374.74 C-288.53 377.58 -290.14 380.3 -291.59 383.38 C-293 386 -293 386 -296 387 C-298 386 -298 386 -299 383 C-299.6 382.61 -300.2 382.22 -300.81 381.81 C-303.39 379.67 -304.34 377.39 -305.72 374.39 C-307.83 370.44 -310.59 366.98 -313.29 363.42 C-315 361 -315 361 -316 358 C-316.62 357.38 -317.24 356.76 -317.88 356.12 C-320.94 353.06 -322.66 349.72 -324.5 345.81 C-325.84 342.76 -325.84 342.76 -329 341 C-330.18 339.31 -331.3 337.57 -332.38 335.81 C-334.46 332.43 -336.57 329.13 -338.94 325.94 C-341 323 -341 323 -341 321 C-341.66 321 -342.32 321 -343 321 C-343.58 319.93 -344.15 318.86 -344.75 317.75 C-346.05 315.47 -347.13 313.87 -349 312 C-351.73 309.27 -353.22 306.43 -355 303 C-355 302.34 -355 301.68 -355 301 C-355.62 300.92 -356.24 300.83 -356.88 300.75 C-359 300 -359 300 -359.94 298.25 C-360.29 297.51 -360.64 296.76 -361 296 C-362.62 294.29 -364.29 292.63 -366 291 C-366.66 290.3 -367.32 289.6 -368 288.88 C-370.18 286.83 -372.42 285.51 -375 284 C-375.73 283.4 -376.45 282.81 -377.2 282.19 C-380.45 279.65 -383.83 277.55 -387.38 275.44 C-388.01 275.05 -388.64 274.67 -389.3 274.27 C-396.03 270.23 -402.75 267.63 -410.38 265.88 C-417.88 264.12 -417.88 264.12 -419 263 C-421.1 262.81 -423.21 262.68 -425.31 262.56 C-431.13 262.19 -436.75 261.48 -442.48 260.4 C-445.23 259.9 -445.23 259.9 -449 260 C-448.67 258.35 -448.34 256.7 -448 255 C-447.34 255 -446.68 255 -446 255 C-445.94 254.28 -445.88 253.56 -445.81 252.81 C-444.75 249.12 -442.73 247.67 -440 245 C-438.52 242.72 -437.27 240.4 -436 238 C-435.34 238 -434.68 238 -434 238 C-433.92 237.44 -433.84 236.89 -433.75 236.31 C-432.77 233.29 -431.02 231.44 -429 229 C-428.29 227.79 -428.29 227.79 -427.56 226.56 C-425.62 223.38 -423.5 220.76 -421 218 C-420.34 218 -419.68 218 -419 218 C-419 217.01 -419 216.02 -419 215 C-418.01 215 -417.02 215 -416 215 C-415.92 214.26 -415.83 213.51 -415.75 212.75 C-414.84 209.42 -413.6 208.28 -411.06 206 C-408.72 203.89 -407.2 202.52 -406.06 199.56 C-404.66 196.19 -402.66 194.49 -400 192 C-398.84 190.82 -397.68 189.64 -396.52 188.45 C-395.28 187.2 -394.05 185.94 -392.81 184.69 C-392.18 184.04 -391.56 183.4 -390.91 182.73 C-390.31 182.12 -389.7 181.51 -389.08 180.89 C-388.54 180.33 -387.99 179.78 -387.43 179.21 C-386 178 -386 178 -384 178 C-384 177.01 -384 176.02 -384 175 C-383.01 175 -382.02 175 -381 175 C-381 173.68 -381 172.36 -381 171 C-377.99 167.57 -374.57 164.82 -371 162 C-369.98 161.02 -368.97 160.03 -368 159 C-367.34 159.33 -366.68 159.66 -366 160 C-366 159.01 -366 158.02 -366 157 C-365.01 157 -364.02 157 -363 157 C-362.68 156.2 -362.68 156.2 -362.36 155.38 C-360.48 152.09 -357.92 149.59 -355.25 146.94 C-354.74 146.41 -354.22 145.88 -353.7 145.33 C-350.37 142.01 -347.25 140.09 -343 138 C-342.67 137.01 -342.34 136.02 -342 135 C-340.95 134.38 -340.95 134.38 -339.88 133.75 C-336.55 131.73 -334.33 129.3 -331.75 126.43 C-330 125 -330 125 -326 125 C-326 124.01 -326 123.02 -326 122 C-325.01 122 -324.02 122 -323 122 C-322.75 121.4 -322.5 120.8 -322.25 120.19 C-319.93 116.13 -315.91 114.35 -312 112 C-308.97 109.96 -308.97 109.96 -307 107 C-305.68 107 -304.36 107 -303 107 C-303 106.34 -303 105.68 -303 105 C-298.01 100.26 -292.53 97.18 -286 95 C-286 94.34 -286 93.68 -286 93 C-277.42 88.08 -277.42 88.08 -274.94 87.62 C-273.98 87.32 -273.98 87.32 -273 87 C-272.67 86.01 -272.34 85.02 -272 84 C-271.01 83.67 -270.02 83.34 -269 83 C-267.66 82.01 -266.33 81.01 -265 80 C-263.67 79.33 -262.33 78.67 -261 78 C-260.04 77.23 -260.04 77.23 -259.06 76.44 C-256.7 74.79 -254.82 74.39 -252 74 C-252 73.34 -252 72.68 -252 72 C-250.68 72 -249.36 72 -248 72 C-248 71.34 -248 70.68 -248 70 C-246.68 69.34 -245.36 68.68 -244 68 C-244 67.67 -244 67.34 -244 67 C-243.26 66.88 -242.51 66.75 -241.75 66.62 C-239.17 66.04 -237.25 65.37 -235 64 C-234.67 63.34 -234.34 62.68 -234 62 C-232.34 61.64 -230.67 61.31 -229 61 C-225.83 59.74 -225.83 59.74 -224 57 C-222.34 56.64 -220.67 56.31 -219 56 C-215.83 54.74 -215.83 54.74 -214 52 C-212.02 52 -210.04 52 -208 52 C-208 51.34 -208 50.68 -208 50 C-204.38 48.51 -200.72 47.21 -197 46 C-197 45.67 -197 45.34 -197 45 C-194.03 44.5 -194.03 44.5 -191 44 C-191 43.34 -191 42.68 -191 42 C-190.15 41.81 -189.29 41.61 -188.41 41.41 C-187.31 41.15 -186.2 40.89 -185.06 40.62 C-183.96 40.37 -182.86 40.11 -181.72 39.85 C-180.82 39.57 -179.93 39.29 -179 39 C-178.67 38.34 -178.34 37.68 -178 37 C-174.94 36.38 -174.94 36.38 -172 36 C-172 35.67 -172 35.34 -172 35 C-169.69 34.34 -167.38 33.68 -165 33 C-165 32.67 -165 32.34 -165 32 C-163.93 31.88 -162.86 31.75 -161.75 31.62 C-158.54 31.09 -156.76 30.52 -154 29 C-152.68 28.63 -151.34 28.29 -150 28 C-150 27.67 -150 27.34 -150 27 C-147.69 26.67 -145.38 26.34 -143 26 C-143 25.67 -143 25.34 -143 25 C-141.89 24.88 -140.77 24.75 -139.62 24.62 C-135.97 24.35 -135.97 24.35 -134 22 C-131.34 21.43 -128.71 21.26 -126 21 C-126 20.67 -126 20.34 -126 20 C-125.36 19.95 -124.72 19.9 -124.07 19.85 C-123.24 19.78 -122.41 19.7 -121.56 19.62 C-120.74 19.56 -119.92 19.49 -119.07 19.41 C-118.38 19.28 -117.7 19.14 -117 19 C-116.67 18.34 -116.34 17.68 -116 17 C-113.71 16.59 -113.71 16.59 -110.94 16.38 C-110.02 16.3 -109.1 16.23 -108.15 16.15 C-107.09 16.07 -107.09 16.07 -106 16 C-106 15.67 -106 15.34 -106 15 C-104.93 14.93 -104.93 14.93 -103.85 14.85 C-102.93 14.78 -102.01 14.7 -101.06 14.62 C-99.69 14.52 -99.69 14.52 -98.29 14.41 C-97.15 14.21 -97.15 14.21 -96 14 C-95.67 13.34 -95.34 12.68 -95 12 C-92.79 11.55 -92.79 11.55 -90.06 11.31 C-88.72 11.18 -88.72 11.18 -87.35 11.05 C-85 11 -85 11 -83 12 C-83 11.34 -83 10.68 -83 10 C-82.08 9.95 -81.17 9.9 -80.23 9.85 C-79.04 9.78 -77.85 9.7 -76.62 9.62 C-75.44 9.56 -74.26 9.49 -73.04 9.41 C-69.89 9.3 -69.89 9.3 -68 7 C-65.63 6.7 -63.26 6.5 -60.88 6.38 C-59.59 6.3 -58.31 6.23 -56.99 6.15 C-56 6.1 -55.02 6.05 -54 6 C-54 5.67 -54 5.34 -54 5 C-52.91 4.94 -51.83 4.88 -50.71 4.82 C-49.27 4.73 -47.82 4.65 -46.38 4.56 C-45.66 4.52 -44.95 4.48 -44.21 4.44 C-40.08 4.2 -36.08 3.77 -32 3 C-32 2.67 -32 2.34 -32 2 C-21.44 1.67 -10.88 1.34 0 1 C0 0.67 0 0.34 0 0 Z " fill="white" transform="translate(613,72)"/>
<path d="M0 0 C10.38 -0.33 18.5 1.91 28 6 C28 6.99 28 7.98 28 9 C28.54 9.06 29.07 9.12 29.62 9.19 C34.23 10.76 37.25 13.65 39.56 17.81 C40.04 18.86 40.51 19.92 41 21 C41.81 22.41 42.65 23.8 43.5 25.19 C43.9 25.84 44.3 26.49 44.72 27.17 C45.92 29.01 45.92 29.01 47.41 30.34 C49.7 32.73 51.19 35.47 52.88 38.31 C55.62 42.88 58.48 47 62 51 C67 57.37 67 57.37 67 61 C67.99 61.33 68.98 61.66 70 62 C71.14 63.5 71.14 63.5 72.25 65.44 C74.23 68.77 76.33 71.96 78.56 75.12 C79.45 76.38 79.45 76.38 80.35 77.66 C80.9 78.43 81.44 79.21 82 80 C86 85.68 86 85.68 86 88 C86.66 88 87.32 88 88 88 C89.2 89.85 90.31 91.76 91.38 93.69 C93.64 97.78 96.01 101.4 99 105 C100.93 107.8 102.77 110.63 104.56 113.51 C108.39 119.64 112.51 125.34 117 131 C122 137.47 122 137.47 122 141 C122.99 141.33 123.98 141.66 125 142 C126.32 143.74 126.32 143.74 127.56 145.88 C127.98 146.57 128.39 147.27 128.82 147.99 C129.21 148.65 129.6 149.32 130 150 C130.66 150.99 131.32 151.98 132 153 C132 153.99 132 154.98 132 156 C132.99 156.33 133.98 156.66 135 157 C136.61 159 136.61 159 138.19 161.44 C138.72 162.24 139.25 163.04 139.79 163.87 C141 166 141 166 141 168 C141.66 168 142.32 168 143 168 C143.68 169.45 143.68 169.45 144.38 170.94 C145.66 174.07 145.66 174.07 148 175 C149.02 176.99 150.01 178.99 151 181 C153.78 186 153.78 186 157.41 190.34 C160.55 193.62 162.57 197.8 164.87 201.68 C167.02 205.03 169.44 207.95 172 211 C179.84 222.16 180.59 233.66 179 247 C177.96 250.66 177.96 250.66 177 253 C176.34 253 175.68 253 175 253 C174.83 253.83 174.67 254.65 174.5 255.5 C172.23 260.79 168.11 265.65 162.74 267.98 C161.83 268.32 160.93 268.65 160 269 C159.45 269.32 158.89 269.63 158.32 269.96 C152.87 273.08 148.49 273.53 142.29 273.36 C141.39 273.35 140.49 273.34 139.57 273.33 C136.73 273.3 133.9 273.25 131.06 273.19 C128.2 273.15 125.34 273.11 122.48 273.08 C120.71 273.05 118.93 273.03 117.16 272.99 C115.11 272.96 113.05 272.97 111 273 C109.16 274.84 109.83 277.72 109.81 280.19 C109.8 281.32 109.78 282.44 109.77 283.61 C110.01 287.09 110.87 289.72 112 293 C112.23 295.1 112.4 297.2 112.5 299.31 C112.98 308.34 112.98 308.34 115.98 316.76 C117.71 320.56 118.11 324.71 118.77 328.8 C119.63 333.82 121.13 338.28 123 343 C123.52 344.43 124.03 345.86 124.54 347.29 C124.79 348 125.04 348.72 125.3 349.45 C125.55 350.17 125.8 350.89 126.06 351.62 C126.32 352.35 126.57 353.07 126.84 353.82 C128.56 358.7 130.21 363.59 131.82 368.5 C134.18 375.31 137.21 381.5 140.61 387.84 C141.96 390.91 142.32 392.7 142 396 C142.66 396 143.32 396 144 396 C145.42 399.32 146.39 402.44 147 406 C147.99 406.33 148.98 406.66 150 407 C151.09 408.55 151.09 408.55 152.09 410.54 C152.65 411.63 152.65 411.63 153.22 412.74 C153.6 413.51 153.98 414.27 154.38 415.06 C156.99 420.23 159.68 425.24 162.8 430.12 C164.59 432.92 166.28 435.78 168 438.62 C171.05 443.63 171.05 443.63 174.62 448.25 C177.22 451.26 179.33 454.42 181.47 457.75 C184.6 462.35 188.24 466.42 192 470.5 C194.49 473.21 196.91 475.89 199.19 478.78 C200.81 481.08 200.81 481.08 203 482 C203 482.99 203 483.98 203 485 C203.99 485.33 204.98 485.66 206 486 C206 486.66 206 487.32 206 488 C206.66 488 207.32 488 208 488 C208 488.66 208 489.32 208 490 C208.99 490.33 209.98 490.66 211 491 C211 491.66 211 492.32 211 493 C211.66 493 212.32 493 213 493 C213 493.66 213 494.32 213 495 C213.99 495.33 214.98 495.66 216 496 C216 496.66 216 497.32 216 498 C216.66 498 217.32 498 218 498 C218 498.66 218 499.32 218 500 C218.99 500.33 219.98 500.66 221 501 C221 501.66 221 502.32 221 503 C221.66 503 222.32 503 223 503 C223 503.66 223 504.32 223 505 C223.99 505.33 224.98 505.66 226 506 C226 506.66 226 507.32 226 508 C226.84 508.34 226.84 508.34 227.69 508.69 C230.62 510.35 232.62 512.62 235 515 C235.99 515.33 236.98 515.66 238 516 C238 516.66 238 517.32 238 518 C238.56 518.25 239.11 518.5 239.69 518.75 C242.4 520.22 244.62 522.05 247 524 C247.66 524.33 248.32 524.66 249 525 C249.33 525.99 249.66 526.98 250 528 C251.98 529.05 253.98 530.04 256 531 C258.8 532.95 261.5 535 264.22 537.06 C266.98 539.09 266.98 539.09 270.22 540.56 C273 542 273 542 275 545 C277.47 546.57 277.47 546.57 280.31 548 C283.95 549.9 287.48 551.89 291 554 C292.01 554.5 292.01 554.5 293.04 555.02 C295.23 556.11 297.24 557.38 299.31 558.69 C305.95 562.69 312.94 565.83 320 569 C320.77 569.35 321.54 569.7 322.34 570.06 C324.74 571.15 327.15 572.23 329.56 573.31 C330.31 573.65 331.06 573.99 331.83 574.34 C335.84 576.12 339.82 577.65 344 579 C347.33 580.27 350.66 581.57 353.98 582.88 C356.33 583.75 358.56 584.44 361 585 C363 585.67 365 586.33 367 587 C369.33 587.68 371.66 588.34 374 589 C375.03 589.31 376.06 589.62 377.12 589.94 C381.57 591.21 386.08 592.19 390.59 593.21 C393.83 593.96 397.04 594.78 400.25 595.62 C405.17 596.87 409.95 597.57 415 598 C420.45 598.62 425.8 599.47 431.19 600.5 C436.92 601.52 442.44 602.13 448.26 602.15 C448.95 602.15 449.64 602.15 450.35 602.16 C452.6 602.16 454.86 602.17 457.11 602.17 C458.68 602.17 460.26 602.17 461.83 602.18 C465.12 602.18 468.41 602.19 471.7 602.19 C475.91 602.19 480.13 602.2 484.34 602.22 C487.59 602.23 490.84 602.23 494.08 602.23 C495.64 602.23 497.19 602.23 498.75 602.24 C500.92 602.25 503.08 602.25 505.25 602.24 C507.1 602.25 507.1 602.25 508.99 602.25 C512.18 602.23 512.18 602.23 515 600 C516.99 599.68 516.99 599.68 519.23 599.59 C520.43 599.53 520.43 599.53 521.66 599.47 C522.5 599.44 523.33 599.41 524.19 599.38 C525.45 599.32 525.45 599.32 526.75 599.26 C528.83 599.16 530.92 599.08 533 599 C533 598.67 533 598.34 533 598 C534 597.95 535 597.9 536.03 597.85 C537.32 597.78 538.61 597.7 539.94 597.62 C541.87 597.52 541.87 597.52 543.84 597.41 C544.88 597.28 545.93 597.14 547 597 C547.33 596.34 547.66 595.68 548 595 C550.29 594.59 550.29 594.59 553.06 594.38 C553.98 594.3 554.9 594.23 555.85 594.15 C556.56 594.1 557.27 594.05 558 594 C558 593.67 558 593.34 558 593 C558.63 592.95 559.25 592.9 559.9 592.85 C560.72 592.78 561.53 592.7 562.38 592.62 C563.19 592.56 564 592.49 564.84 592.41 C567.2 592.17 567.2 592.17 569 590 C571.16 589.59 571.16 589.59 573.62 589.38 C574.44 589.3 575.26 589.23 576.1 589.15 C576.73 589.1 577.35 589.05 578 589 C578 588.67 578 588.34 578 588 C580.64 587.67 583.28 587.34 586 587 C586 586.34 586 585.68 586 585 C592.75 583.88 592.75 583.88 595 585 C595 584.34 595 583.68 595 583 C596.98 582.67 598.96 582.34 601 582 C601 581.34 601 580.68 601 580 C603.31 580 605.62 580 608 580 C608 579.34 608 578.68 608 578 C609.98 577.67 611.96 577.34 614 577 C614 576.34 614 575.68 614 575 C615.58 574.88 615.58 574.88 617.19 574.75 C621.35 573.93 622.82 572.68 626 570 C628.56 569.37 628.56 569.37 631 569 C634.17 567.74 634.17 567.74 636 565 C637.66 564.64 639.33 564.31 641 564 C644.17 562.74 644.17 562.74 646 560 C647.11 559.81 647.11 559.81 648.25 559.62 C651.17 559.17 651.17 559.17 653.56 556.94 C656 555 656 555 660 555 C660 554.34 660 553.68 660 553 C660.56 552.75 661.11 552.5 661.69 552.25 C664.14 551.01 664.14 551.01 666.56 548.94 C669 547 669 547 672 546 C672.99 545.34 673.98 544.68 675 544 C675.66 544.33 676.32 544.66 677 545 C677 544.34 677 543.68 677 543 C682.24 538 682.24 538 687 538 C687.23 537.38 687.45 536.76 687.69 536.12 C689.38 533.39 690.99 532.95 694 532 C694 531.34 694 530.68 694 530 C695.66 528.99 697.33 527.99 699 527 C699.68 526.32 700.36 525.64 701.06 524.94 C703.79 522.21 706.37 521.21 710 520 C710.27 519.4 710.54 518.8 710.81 518.19 C712.52 515.05 715 513.9 718 512 C720.11 510.42 722.04 508.78 724 507 C724 506.34 724 505.68 724 505 C724.7 504.59 725.39 504.17 726.11 503.75 C729.67 501.59 732.29 498.96 735.19 496 C735.72 495.47 736.25 494.93 736.8 494.38 C739.14 492.02 741.15 489.77 743 487 C743.47 486.55 743.95 486.09 744.44 485.62 C746.17 483.95 746.17 483.95 747.56 481.31 C748.27 480.17 748.27 480.17 749 479 C749.66 479 750.32 479 751 479 C751.25 478.42 751.5 477.85 751.75 477.25 C753.18 474.67 754.78 472.94 757 471 C757.66 471 758.32 471 759 471 C759 470.01 759 469.02 759 468 C759.99 468 760.98 468 762 468 C762.06 467.28 762.12 466.56 762.19 465.81 C763.25 462.15 765.3 460.64 768 458 C769.32 455.33 769.32 455.33 770 453 C770.66 453 771.32 453 772 453 C772 452.34 772 451.68 772 451 C772.66 451 773.32 451 774 451 C774.33 450.01 774.66 449.02 775 448 C776.64 444.04 779.14 441.14 782 438 C782.66 438 783.32 438 784 438 C783.67 437.01 783.34 436.02 783 435 C783.66 434.34 784.32 433.68 785 433 C785.31 432.38 785.62 431.76 785.94 431.12 C787.07 428.86 788.46 427.01 790 425 C790.33 424.34 790.66 423.68 791 423 C792 421 793 419 794 417 C797.59 417.3 798.78 417.77 801.31 420.44 C803 423 803 423 803 425 C803.66 425 804.32 425 805 425 C806.04 426.4 806.04 426.4 807.19 428.38 C809.77 432.71 812.66 436.74 815.64 440.8 C817 443 817 443 817 446 C817.99 446.33 818.98 446.66 820 447 C821.21 448.57 821.21 448.57 822.38 450.56 C822.8 451.28 823.23 452 823.68 452.74 C824.11 453.49 824.55 454.23 825 455 C827.78 459.58 830.64 463.82 834 468 C835.48 470.16 836.92 472.35 838.36 474.54 C840.04 477.06 841.76 479.53 843.5 482 C845.74 485.18 847.93 488.38 850.06 491.62 C855.82 500.29 861.95 507.38 870 514 C872 516 872 516 873 518 C874.65 519.03 876.32 520.03 878 521 C879.05 521.72 880.1 522.44 881.19 523.19 C883.72 525.18 883.72 525.18 886 525 C886.66 525.99 887.32 526.98 888 528 C894.35 531.49 900.98 534.21 908 536 C909.27 536.51 910.54 537.03 911.81 537.56 C915.71 539.07 919.37 539.45 923.52 539.75 C925.84 539.98 927.93 540.42 930.19 541 C936.66 542.57 943.37 542.67 950 543 C950 547.44 949.64 547.9 946.94 551.12 C942.22 556.92 937.96 562.99 933.88 569.25 C932 572 932 572 929.44 575.06 C927.02 577.83 927.02 577.83 925.5 580.5 C923.63 583.61 921.37 586.27 919 589 C918.43 589.67 917.85 590.33 917.26 591.02 C914.83 593.83 912.42 596.59 909.75 599.19 C907.73 601.28 906.43 603.47 905 606 C904.34 606.99 903.68 607.98 903 609 C902.34 609 901.68 609 901 609 C900.74 609.59 900.47 610.18 900.2 610.79 C898.96 613.08 897.68 614.52 895.81 616.31 C895.2 616.91 894.58 617.51 893.95 618.13 C892.65 619.38 891.35 620.62 890.05 621.87 C889.44 622.47 888.82 623.07 888.19 623.69 C887.62 624.23 887.06 624.77 886.48 625.32 C884.9 627.11 884.01 628.85 883 631 C881.5 632.75 881.5 632.75 880 634 C879.34 634 878.68 634 878 634 C877.6 634.96 877.6 634.96 877.19 635.94 C876 638 876 638 873 639 C873 639.66 873 640.32 873 641 C871.37 642.38 869.69 643.7 868 645 C862.35 649.69 857.19 654.77 852.1 660.06 C850 662 850 662 848 662 C848 662.66 848 663.32 848 664 C845.68 666.06 843.42 667.77 840.69 669.25 C838.07 670.95 836.23 672.71 834.06 674.94 C830.93 678.16 827.81 680.6 824 683 C822.99 683.85 821.98 684.69 820.94 685.56 C818 688 818 688 815.38 689.56 C812.92 690.92 812.92 690.92 811 693 C808.02 695.98 804.98 697.67 801 699 C801 699.66 801 700.32 801 701 C798 703 798 703 795 703 C795 703.66 795 704.32 795 705 C790.4 708.67 785.26 711.43 780 714 C778.58 714.94 777.16 715.88 775.75 716.84 C772.5 719 769.18 721.06 765.88 723.12 C764.82 723.79 764.82 723.79 763.75 724.46 C763.06 724.89 762.38 725.32 761.68 725.76 C761.07 726.14 760.46 726.52 759.83 726.92 C757.93 728.04 755.98 729.02 754 730 C753.27 730.44 752.55 730.88 751.8 731.34 C747.21 734.06 742.46 736.47 737.73 738.94 C733.55 741.12 729.38 743.33 725.25 745.62 C724.51 746.03 723.76 746.44 722.99 746.87 C721.58 747.64 720.18 748.42 718.78 749.22 C714.14 751.76 710.29 752.62 705 753 C705 753.66 705 754.32 705 755 C704.42 755.23 703.83 755.46 703.23 755.7 C697.48 757.99 691.76 760.34 686.05 762.75 C683.08 763.97 680.08 765.11 677.07 766.23 C675.06 766.98 673.07 767.74 671.07 768.5 C664.43 771.03 657.82 773.48 650.98 775.41 C648.83 776.01 648.83 776.01 646.19 777.19 C643.68 778.12 641.65 778 639 778 C638.34 778.66 637.68 779.32 637 780 C632.09 781.64 627.12 782.61 622.04 783.54 C620.02 783.81 620.02 783.81 619 785 C617.04 785.23 615.07 785.45 613.11 785.62 C610.77 786.04 609.1 786.92 607 788 C602.51 789.31 597.96 790.05 593.31 790.5 C589.62 790.86 586.52 791.8 583 793 C576.41 794.46 569.84 795.29 563.12 795.75 C561.02 795.78 561.02 795.78 560 797 C558.55 797.21 557.09 797.37 555.63 797.5 C554.3 797.62 554.3 797.62 552.95 797.75 C551.55 797.87 551.55 797.87 550.12 798 C548.29 798.16 546.46 798.33 544.63 798.5 C543.82 798.57 543 798.64 542.16 798.72 C539.82 798.95 539.82 798.95 537 800 C535.02 800.14 533.04 800.22 531.05 800.28 C529.32 800.34 529.32 800.34 527.54 800.39 C525.09 800.47 522.64 800.54 520.18 800.61 C519.03 800.64 517.87 800.68 516.68 800.72 C515.61 800.75 514.55 800.78 513.45 800.81 C511.05 800.73 511.05 800.73 510 802 C507.83 802.1 505.65 802.13 503.48 802.13 C502.8 802.13 502.11 802.13 501.41 802.13 C499.15 802.14 496.89 802.14 494.62 802.13 C493.06 802.13 491.49 802.13 489.93 802.14 C486.64 802.14 483.36 802.14 480.07 802.13 C475.85 802.12 471.63 802.13 467.41 802.13 C464.18 802.14 460.94 802.14 457.71 802.13 C456.15 802.13 454.6 802.13 453.04 802.14 C450.87 802.14 448.7 802.13 446.52 802.13 C445.29 802.13 444.05 802.13 442.77 802.13 C440 802 440 802 439 801 C437.13 800.87 435.26 800.8 433.39 800.75 C432.24 800.72 431.1 800.69 429.91 800.65 C427.49 800.59 425.06 800.54 422.63 800.48 C420.9 800.43 420.9 800.43 419.14 800.38 C417.56 800.34 417.56 800.34 415.94 800.3 C412.93 799.99 410.77 799.16 408 798 C405.81 797.66 405.81 797.66 403.61 797.62 C402.82 797.59 402.03 797.55 401.21 797.52 C400.4 797.49 399.59 797.46 398.75 797.44 C390.12 797.12 390.12 797.12 389 796 C387.42 795.81 385.84 795.67 384.25 795.56 C379.83 795.19 375.45 794.7 371.06 794.06 C370 793.91 368.94 793.76 367.85 793.6 C365.2 793.04 363.38 792.22 361 791 C359.05 790.66 359.05 790.66 357 790.56 C342.21 789.21 342.21 789.21 339 786 C337.67 785.79 336.34 785.63 335 785.5 C331.11 785.11 331.11 785.11 330 784 C328.47 783.65 326.92 783.35 325.38 783.06 C321.16 782.26 317.1 781.25 313 780 C313 779.34 313 778.68 313 778 C312.09 778.21 311.19 778.41 310.25 778.62 C306.65 779.04 306.05 778.65 303 777 C297.3 774.77 291.51 772.83 285.69 770.94 C281.57 769.59 277.87 767.94 274 766 C272.42 765.52 270.84 765.07 269.25 764.62 C264.66 763.32 260.69 761.42 256.47 759.21 C252.78 757.4 248.94 756.17 245 755 C245 754.34 245 753.68 245 753 C243.98 752.91 242.96 752.81 241.91 752.71 C237.73 751.95 235.06 750.67 231.38 748.56 C224.07 744.47 216.58 740.9 208.97 737.41 C208.11 737.01 207.25 736.61 206.36 736.2 C205.59 735.85 204.82 735.49 204.03 735.13 C201.95 733.97 200.64 732.7 199 731 C197.03 729.95 195.02 728.95 193 728 C189 726 185 724 181 722 C181 721.34 181 720.68 181 720 C178.35 718.92 175.72 717.91 173 717 C173 716.34 173 715.68 173 715 C172.22 714.81 171.43 714.63 170.62 714.44 C164.72 712.1 159.86 708.18 154.84 704.35 C152.97 702.98 151.1 701.97 149 701 C149 700.34 149 699.68 149 699 C148.34 698.79 147.68 698.59 147 698.38 C142.87 696.48 139.56 693.8 136 691 C135.29 690.45 134.57 689.9 133.84 689.33 C128.93 685.55 124.09 681.68 119.26 677.8 C117.8 676.64 116.3 675.52 114.77 674.45 C113 673 113 673 112 670 C111.01 669.67 110.02 669.34 109 669 C107.74 668.23 106.52 667.41 105.31 666.56 C104.69 666.13 104.07 665.7 103.43 665.25 C102.96 664.84 102.48 664.43 102 664 C102 663.34 102 662.68 102 662 C101.44 661.73 100.89 661.46 100.31 661.19 C99.17 660.6 99.17 660.6 98 660 C97.24 659.63 96.47 659.26 95.69 658.88 C92.47 656.63 90.29 653.98 87.77 651 C85.4 648.32 82.8 646.23 80 644 C78.13 642.31 78.13 642.31 77 641 C77 640.34 77 639.68 77 639 C76.36 638.73 75.72 638.46 75.06 638.19 C73 637 73 637 72 634 C71.34 634 70.68 634 70 634 C69.67 633.01 69.34 632.02 69 631 C68.07 630.38 67.14 629.76 66.19 629.12 C62.97 626.98 61.28 625.09 59 622 C58.09 620.93 57.17 619.87 56.25 618.81 C54 616 54 616 54 614 C53.34 614 52.68 614 52 614 C52 613.34 52 612.68 52 612 C51.01 611.67 50.02 611.34 49 611 C49 610.34 49 609.68 49 609 C48.34 609 47.68 609 47 609 C44.64 606.35 43.13 604.38 42 601 C41.01 600.67 40.02 600.34 39 600 C39 599.34 39 598.68 39 598 C38.34 598 37.68 598 37 598 C35.34 595.47 33.91 592.84 32.44 590.19 C31.96 589.47 31.49 588.74 31 588 C30.34 588 29.68 588 29 588 C27.78 586.39 27.78 586.39 26.5 584.25 C26.08 583.55 25.65 582.86 25.22 582.14 C24 580 24 580 23.03 577.86 C22 575.67 22 575.67 19 574 C17.43 572.2 17.43 572.2 15.88 570.12 C15.36 569.45 14.84 568.77 14.3 568.07 C13.01 566.01 12.44 564.38 12 562 C11.34 562 10.68 562 10 562 C8.82 560.39 8.82 560.39 7.56 558.25 C6.18 555.94 4.85 553.81 3.19 551.69 C2 550 2 550 2 547 C1.34 547 0.68 547 0 547 C-2.04 544.09 -3 542.6 -3 539 C-3.66 539 -4.32 539 -5 539 C-5.33 538.01 -5.66 537.02 -6 536 C-6.66 535.34 -7.32 534.68 -8 534 C-8.74 532.88 -9.45 531.73 -10.12 530.56 C-10.48 529.97 -10.83 529.37 -11.2 528.75 C-12 527 -12 527 -12 524 C-12.99 523.67 -13.98 523.34 -15 523 C-16.37 520.71 -17.15 518.54 -18 516 C-18.66 515.67 -19.32 515.34 -20 515 C-20.96 513.11 -20.96 513.11 -21.94 510.75 C-23.4 507.31 -25.05 504.19 -27 501 C-27.28 500.27 -27.56 499.54 -27.86 498.79 C-29.24 495.42 -30.94 492.26 -32.69 489.06 C-35.51 483.83 -38.27 478.57 -40.94 473.25 C-41.5 472.12 -42.07 470.99 -42.65 469.83 C-44.16 466.67 -45 464.52 -45 461 C-45.66 460.67 -46.32 460.34 -47 460 C-47.88 457.8 -48.68 455.56 -49.44 453.31 C-50.67 449.65 -51.88 446.23 -53.66 442.79 C-55 440 -55 440 -55 436 C-55.66 435.67 -56.32 435.34 -57 435 C-59.84 428.9 -61.48 422.53 -62.51 415.9 C-62.75 414.96 -62.75 414.96 -63 414 C-63.66 413.67 -64.32 413.34 -65 413 C-65.58 410.87 -66.06 408.72 -66.5 406.56 C-67.29 401.78 -67.29 401.78 -70 398 C-69.34 398 -68.68 398 -68 398 C-68.36 397.34 -68.72 396.67 -69.09 395.99 C-69.79 394.66 -69.79 394.66 -70.5 393.31 C-71.2 392.01 -71.2 392.01 -71.91 390.68 C-73.06 387.85 -73.09 386.01 -73 383 C-73.72 381.36 -74.45 379.72 -75.2 378.09 C-77.48 372.13 -78.34 365.36 -78 359 C-78.66 358.67 -79.32 358.34 -80 358 C-80 357.01 -80 356.02 -80 355 C-80.61 351.89 -81.26 348.8 -81.93 345.71 C-82.77 341.74 -83.15 338.06 -83 334 C-83.66 333.67 -84.32 333.34 -85 333 C-85 332.01 -85 331.02 -85 330 C-85.29 328.1 -85.61 326.21 -85.94 324.31 C-87.4 315.95 -88.2 307.74 -88.52 299.27 C-88.68 295.83 -88.99 293.04 -90.04 289.72 C-91.4 284.47 -91.16 279.39 -91 274 C-91.55 274 -92.09 274 -92.66 274.01 C-98.33 274.03 -104.01 274.04 -109.69 274.05 C-111.81 274.06 -113.93 274.07 -116.05 274.08 C-119.09 274.09 -122.14 274.09 -125.18 274.1 C-126.13 274.1 -127.08 274.11 -128.06 274.11 C-128.95 274.11 -129.83 274.11 -130.73 274.11 C-131.51 274.12 -132.29 274.12 -133.09 274.12 C-135 274 -135 274 -137 273 C-139.04 272.26 -141.08 271.53 -143.12 270.82 C-145 270 -145 270 -147 268 C-147.58 267.73 -148.16 267.46 -148.75 267.19 C-151.93 265.51 -154.33 263.42 -157 261 C-157 260.34 -157 259.68 -157 259 C-157.99 258.67 -158.98 258.34 -160 258 C-161.13 256.26 -161.13 256.26 -162.12 254.12 C-162.62 253.08 -162.62 253.08 -163.13 252.01 C-165.48 246.56 -165.18 241.53 -165.19 235.69 C-165.21 234.14 -165.21 234.14 -165.22 232.56 C-165.23 227.3 -165.1 222.91 -163 218 C-162.67 217.01 -162.34 216.02 -162 215 C-161.34 215 -160.68 215 -160 215 C-160 214.34 -160 213.68 -160 213 C-159.34 213 -158.68 213 -158 213 C-157.85 211.86 -157.85 211.86 -157.69 210.69 C-156.93 207.71 -156.15 207.06 -154 205 C-152.81 202.4 -152.81 202.4 -152 200 C-151.34 200 -150.68 200 -150 200 C-150 199.34 -150 198.68 -150 198 C-149.34 198 -148.68 198 -148 198 C-147.67 197.01 -147.34 196.02 -147 195 C-146.07 193.15 -145.11 191.32 -144.12 189.5 C-143.61 188.54 -143.1 187.58 -142.57 186.59 C-141.2 184.33 -140.05 182.66 -138 181 C-137.34 181 -136.68 181 -136 181 C-135.9 180.42 -135.79 179.85 -135.69 179.25 C-134.89 176.65 -133.7 175.1 -132 173 C-130.45 170.68 -129.2 168.49 -128 166 C-127.34 166 -126.68 166 -126 166 C-126 165.01 -126 164.02 -126 163 C-125.01 163 -124.02 163 -123 163 C-122.81 161.86 -122.81 161.86 -122.62 160.69 C-122 158 -122 158 -120 155 C-119.32 153.67 -118.65 152.34 -118 151 C-117.34 151 -116.68 151 -116 151 C-115.67 150.01 -115.34 149.02 -115 148 C-113.97 145.55 -113.05 144.05 -111.12 142.19 C-108.4 139.38 -106.85 136.44 -105 133 C-104.34 133 -103.68 133 -103 133 C-102.9 132.24 -102.79 131.47 -102.69 130.69 C-101.91 127.65 -101.2 127.12 -99 125 C-97.57 122.71 -96.3 120.37 -95 118 C-94.34 118 -93.68 118 -93 118 C-92.5 116.51 -92.5 116.51 -92 115 C-91.07 113.15 -90.11 111.32 -89.12 109.5 C-88.61 108.54 -88.1 107.58 -87.57 106.59 C-86.2 104.33 -85.05 102.66 -83 101 C-82.34 101 -81.68 101 -81 101 C-80.9 100.42 -80.79 99.85 -80.69 99.25 C-79.89 96.65 -78.7 95.1 -77 93 C-75.45 90.68 -74.2 88.49 -73 86 C-72.34 86 -71.68 86 -71 86 C-70.5 84.02 -70.5 84.02 -70 82 C-69.34 82.33 -68.68 82.66 -68 83 C-67.81 81.86 -67.81 81.86 -67.62 80.69 C-67 78 -67 78 -65 75 C-64.32 73.67 -63.65 72.34 -63 71 C-62.34 71 -61.68 71 -61 71 C-60.5 69.51 -60.5 69.51 -60 68 C-58.97 65.55 -58.05 64.05 -56.12 62.19 C-53.4 59.38 -51.85 56.44 -50 53 C-49.34 53 -48.68 53 -48 53 C-47.9 52.24 -47.79 51.47 -47.69 50.69 C-46.91 47.65 -46.2 47.12 -44 45 C-42.57 42.71 -41.3 40.37 -40 38 C-39.34 38 -38.68 38 -38 38 C-37.67 37.01 -37.34 36.02 -37 35 C-36.07 33.15 -35.11 31.32 -34.12 29.5 C-33.61 28.54 -33.1 27.58 -32.57 26.59 C-31.2 24.33 -30.05 22.66 -28 21 C-27.34 21 -26.68 21 -26 21 C-25.92 20.44 -25.84 19.89 -25.75 19.31 C-23.97 13.83 -19.38 10.43 -15 7 C-14.34 6.67 -13.68 6.34 -13 6 C-13 5.67 -13 5.34 -13 5 C-11.02 5 -9.04 5 -7 5 C-7 4.34 -7 3.68 -7 3 C-4.69 2.34 -2.38 1.68 0 1 C0 0.67 0 0.34 0 0 Z " fill="white" transform="translate(165,404)"/>
<path d="M0 0 C6.13 -0.35 11.14 0.03 16.9 2.21 C19.25 3.14 19.25 3.14 22.81 4 C25.85 4.95 27.72 5.81 30 8 C30 8.66 30 9.32 30 10 C30.64 10.27 31.28 10.54 31.94 10.81 C34 12 34 12 35 15 C35.99 15.33 36.98 15.66 38 16 C38.73 17.64 39.39 19.31 40 21 C40.52 21.85 41.03 22.69 41.56 23.56 C44.06 27.8 44.16 31.64 44.32 36.52 C44.38 38.39 44.38 38.39 44.44 40.3 C44.48 41.61 44.52 42.91 44.56 44.25 C44.61 45.57 44.65 46.88 44.69 48.24 C44.8 51.49 44.9 54.75 45 58 C45.81 58.06 46.62 58.12 47.46 58.18 C48.53 58.26 49.6 58.35 50.7 58.43 C51.76 58.51 52.82 58.59 53.91 58.68 C57.77 59.08 61.28 59.93 65 61 C65 61.66 65 62.32 65 63 C65.6 63.11 66.21 63.22 66.83 63.33 C71.29 64.22 74.51 64.93 78 68 C78.66 68 79.32 68 80 68 C80 68.66 80 69.32 80 70 C83.45 71.45 83.45 71.45 87.06 72.38 C89.76 73.24 91.09 74.96 93 77 C93.66 77.33 94.32 77.66 95 78 C95 78.66 95 79.32 95 80 C95.99 80.33 96.98 80.66 98 81 C98 81.66 98 82.32 98 83 C98.6 83.08 99.2 83.17 99.81 83.25 C102.63 84.22 103.48 85.49 105 88 C105 88.66 105 89.32 105 90 C105.66 90 106.32 90 107 90 C108.15 91.57 108.15 91.57 109.38 93.69 C110.82 96.11 112.18 98.21 114 100.38 C116.97 104.27 118.93 108.58 121 113 C121.31 113.66 121.63 114.31 121.95 114.99 C123.61 118.64 124.45 122.04 125 126 C125.33 126.66 125.66 127.32 126 128 C126.18 129.39 126.32 130.79 126.44 132.19 C126.72 135.11 127.12 137.37 128.06 140.19 C129.76 147.09 130.66 155.65 127 162 C126.62 163.99 126.27 165.99 126 168 C125.34 168 124.68 168 124 168 C123.93 168.72 123.85 169.44 123.78 170.19 C122.78 173.78 121.19 175.37 118.56 178 C117.76 178.83 116.96 179.65 116.13 180.5 C107.96 187.52 100.34 188.73 89.81 188.06 C88.11 188.01 88.11 188.01 86.37 187.95 C79.76 187.62 75.42 186.84 70 183 C68.42 182.04 68.42 182.04 66.81 181.06 C57.06 173.91 54.82 162.58 52.44 151.37 C52.28 150.59 52.11 149.81 51.94 149 C51.8 148.32 51.67 147.64 51.53 146.94 C50.94 144.79 50 142.99 49 141 C49 140.34 49 139.68 49 139 C48.23 138.63 48.23 138.63 47.44 138.25 C45 137 45 137 42.22 134.96 C36.63 131.78 30.33 132.39 24.07 132.4 C22.71 132.39 21.35 132.38 19.99 132.37 C17.16 132.36 14.32 132.36 11.48 132.37 C7.86 132.38 4.24 132.35 0.63 132.3 C-2.18 132.27 -4.98 132.27 -7.78 132.27 C-9.76 132.27 -11.73 132.25 -13.71 132.22 C-21 132.29 -25.58 133.08 -31.33 137.71 C-33 139 -33 139 -35 139 C-36.58 141.95 -37.64 144.84 -38.56 148.06 C-39.34 150.73 -40.12 153.37 -41 156 C-41.23 159.48 -41.19 162.96 -41.19 166.44 C-41.2 167.39 -41.21 168.35 -41.22 169.33 C-41.23 170.25 -41.23 171.17 -41.23 172.12 C-41.23 172.96 -41.24 173.8 -41.24 174.67 C-40.98 177.21 -40.23 178.79 -39 181 C-38.7 182.33 -38.43 183.66 -38.19 185 C-37.21 189.13 -35.65 190.71 -32 193 C-31.17 193.56 -30.35 194.11 -29.5 194.69 C-24.93 197.09 -20.43 197.13 -15.33 197.19 C-14.68 197.2 -14.03 197.21 -13.36 197.21 C-11.96 197.23 -10.56 197.25 -9.15 197.26 C-6.92 197.28 -4.69 197.31 -2.47 197.34 C2.27 197.4 7.01 197.45 11.75 197.5 C17.23 197.56 22.71 197.62 28.19 197.69 C30.38 197.72 32.56 197.74 34.74 197.76 C53.44 197.97 53.44 197.97 60 201.12 C62.57 202.25 65.2 203.04 67.88 203.88 C74.7 206.11 80.53 209.28 86.44 213.31 C88.77 215.18 88.77 215.18 91 215 C91 215.99 91 216.98 91 218 C91.99 218 92.98 218 94 218 C95.36 219.31 96.69 220.65 98 222 C98.83 222.43 99.65 222.87 100.5 223.31 C104.69 226.14 106.42 230.25 108 235 C108.99 235 109.98 235 111 235 C111.44 235.87 111.87 236.74 112.32 237.64 C112.61 238.21 112.89 238.78 113.18 239.37 C113.82 240.63 114.45 241.9 115.08 243.16 C116.61 246.24 118.16 249.3 119.73 252.36 C123.52 259.74 126.04 266.28 126.66 274.59 C126.95 277.14 126.95 277.14 128 280.02 C129.35 284.68 129.29 289.24 129.27 294.06 C129.27 295.01 129.27 295.96 129.27 296.94 C129.27 298.94 129.27 300.94 129.26 302.94 C129.25 305.99 129.26 309.04 129.27 312.09 C129.27 314.04 129.27 315.99 129.27 317.94 C129.27 318.84 129.27 319.75 129.28 320.68 C129.24 325.86 128.63 330.09 127 335 C126.79 336.54 126.61 338.08 126.5 339.62 C126.17 343.09 125.46 345.82 124 349 C123.86 349.58 123.72 350.15 123.57 350.75 C121.58 358.58 118.65 365.9 113.48 372.14 C111.39 374.77 109.75 377.63 108.08 380.53 C107.54 381.26 107.54 381.26 107 382 C106.34 382 105.68 382 105 382 C104.73 382.64 104.46 383.28 104.19 383.94 C103 386 103 386 100 387 C100 387.66 100 388.32 100 389 C99.34 389 98.68 389 98 389 C97.67 389.99 97.34 390.98 97 392 C96.34 392 95.68 392 95 392 C95 392.66 95 393.32 95 394 C92.59 395.62 92.59 395.62 89.38 397.44 C88.33 398.03 87.29 398.63 86.21 399.25 C83.17 400.91 80.1 402.45 77 404 C75.81 404.7 74.62 405.4 73.44 406.12 C70.32 407.83 68.41 408.42 65 409 C63.85 409.5 62.69 409.99 61.5 410.5 C57.74 411.98 54.25 412.33 50.22 412.59 C48.47 412.71 48.47 412.71 46.69 412.83 C45.8 412.89 44.91 412.94 44 413 C44.02 414.2 44.02 414.2 44.05 415.43 C44.11 419.1 44.15 422.77 44.19 426.44 C44.21 427.7 44.24 428.96 44.26 430.26 C44.34 440.55 42.73 448.41 37 457 C36.34 457 35.68 457 35 457 C34.73 457.64 34.46 458.28 34.19 458.94 C33 461 33 461 30 462 C30 462.66 30 463.32 30 464 C25.7 466.29 21.87 468.26 17 469 C16.67 469.33 16.34 469.66 16 470 C13.05 470.13 10.14 470.19 7.19 470.19 C6.37 470.2 5.55 470.21 4.7 470.22 C3.91 470.23 3.11 470.23 2.29 470.23 C1.57 470.23 0.84 470.24 0.09 470.24 C-2.32 469.96 -3.88 469.16 -6 468 C-6.99 467.67 -7.98 467.34 -9 467 C-11.49 466.17 -13.69 465.24 -16 464 C-16 463.34 -16 462.68 -16 462 C-16.64 461.73 -17.28 461.46 -17.94 461.19 C-20 460 -20 460 -21 457 C-21.99 456.67 -22.98 456.34 -24 456 C-25.07 454.04 -26.07 452.03 -27 450 C-27.99 448.51 -27.99 448.51 -29 447 C-31.32 440 -31.23 433.33 -31.12 426 C-31.12 424.84 -31.11 423.69 -31.1 422.5 C-31.07 419.66 -31.04 416.83 -31 414 C-32.65 414 -34.3 414 -36 414 C-36 413.67 -36 413.34 -36 413 C-36.99 412.9 -37.98 412.79 -39 412.69 C-42.57 412.18 -45.68 411.09 -49.02 409.76 C-51.95 408.64 -54.98 407.85 -58 407 C-61.06 405.91 -62.7 405.3 -65 403 C-66.75 401.99 -68.53 401.01 -70.31 400.06 C-78.32 395.79 -78.32 395.79 -81 394 C-81 393.34 -81 392.68 -81 392 C-81.99 391.67 -82.98 391.34 -84 391 C-84 390.34 -84 389.68 -84 389 C-84.66 389 -85.32 389 -86 389 C-86 388.34 -86 387.68 -86 387 C-86.6 386.73 -87.2 386.46 -87.81 386.19 C-91.25 384.32 -92.67 382.68 -94.38 379.12 C-95.82 375.93 -95.82 375.93 -98.31 373.83 C-101.58 370.39 -103.53 366.82 -105.69 362.62 C-106.27 361.53 -106.27 361.53 -106.87 360.41 C-109.16 356.03 -110.81 351.83 -112 347 C-112.19 346.29 -112.37 345.59 -112.56 344.86 C-118.76 318.52 -118.76 318.52 -115 311 C-114.54 309.36 -114.54 309.36 -114.06 307.69 C-112.29 301.55 -110.73 298.41 -106 294 C-105.5 293.46 -105 292.91 -104.48 292.35 C-103.06 290.82 -101.54 289.41 -100 288 C-98.68 288 -97.36 288 -96 288 C-96 287.34 -96 286.68 -96 286 C-90.58 282.61 -85.95 282.49 -79.75 282.56 C-78.81 282.57 -77.87 282.57 -76.91 282.58 C-70.26 282.73 -64.77 283.49 -59 287 C-57.91 287.64 -56.81 288.28 -55.69 288.94 C-48.69 294.31 -43.89 300.63 -41 309 C-40.89 311.08 -40.89 311.08 -40.94 313.19 C-41 316.98 -40.75 317.88 -39 321 C-38.64 322.33 -38.31 323.66 -38 325 C-36.86 330.36 -36.86 330.36 -33.19 334.12 C-32.47 334.41 -31.74 334.7 -31 335 C-29.91 335.52 -29.91 335.52 -28.79 336.04 C-25.44 337.19 -22.73 337.24 -19.19 337.23 C-18.19 337.23 -18.19 337.23 -17.18 337.23 C-15 337.23 -12.82 337.21 -10.64 337.2 C-9.12 337.19 -7.6 337.19 -6.08 337.19 C-2.1 337.18 1.88 337.16 5.87 337.14 C9.93 337.12 14 337.11 18.07 337.1 C26.05 337.08 34.02 337.04 42 337 C42 336.34 42 335.68 42 335 C43.99 333.66 45.99 332.32 48 331 C50.12 328.25 50.12 328.25 50.44 325.56 C51.07 322.7 52.12 321.21 54 319 C53.34 318.67 52.68 318.34 52 318 C52.66 318 53.32 318 54 318 C54.01 313.75 53.95 309.5 53.88 305.25 C53.88 304.06 53.88 302.88 53.88 301.65 C53.69 292.72 52.01 283.84 45.3 277.36 C37.2 272.58 29.65 272.57 20.51 272.59 C18.05 272.59 15.6 272.58 13.14 272.56 C7.93 272.52 2.71 272.51 -2.5 272.5 C-8.55 272.49 -14.59 272.47 -20.64 272.42 C-23.05 272.41 -25.46 272.41 -27.86 272.42 C-35.12 272.39 -41.34 272.23 -48 269 C-49.7 268.64 -51.41 268.31 -53.12 268.06 C-57.55 267.26 -60.36 265.71 -64 263 C-65.18 262.57 -65.18 262.57 -66.38 262.12 C-69.69 260.71 -72.22 258.67 -75.04 256.44 C-76.95 255.03 -78.87 254.04 -81 253 C-82.02 252.02 -83.02 251.02 -84 250 C-84.66 249.67 -85.32 249.34 -86 249 C-86 248.34 -86 247.68 -86 247 C-86.99 246.67 -87.98 246.34 -89 246 C-90.32 244.41 -90.32 244.41 -91.56 242.5 C-93.32 239.74 -93.32 239.74 -96 238 C-96 237.01 -96 236.02 -96 235 C-96.66 235 -97.32 235 -98 235 C-98.66 234.34 -99.32 233.68 -100 233 C-100.33 233 -100.66 233 -101 233 C-101.29 232.11 -101.29 232.11 -101.59 231.21 C-103.74 223.03 -103.74 223.03 -109 217 C-110.68 213.65 -111 211.84 -111 208 C-111.47 207.03 -111.95 206.06 -112.44 205.06 C-114.54 200.52 -114.55 195.83 -114.79 190.89 C-114.89 187.93 -114.89 187.93 -116 185 C-116.09 183.62 -116.13 182.25 -116.13 180.87 C-116.13 180.04 -116.14 179.21 -116.14 178.36 C-116.14 177.47 -116.13 176.58 -116.13 175.66 C-116.13 174.74 -116.13 173.82 -116.14 172.88 C-116.14 170.93 -116.13 168.99 -116.13 167.05 C-116.13 164.08 -116.13 161.11 -116.14 158.13 C-116.14 156.25 -116.13 154.36 -116.13 152.47 C-116.13 151.58 -116.14 150.7 -116.14 149.78 C-116.14 148.95 -116.13 148.12 -116.13 147.26 C-116.13 146.53 -116.13 145.81 -116.13 145.06 C-116 142.92 -115.55 141.06 -115 139 C-114.78 137.09 -114.6 135.17 -114.44 133.25 C-114.35 132.27 -114.27 131.28 -114.18 130.27 C-114.12 129.52 -114.06 128.77 -114 128 C-113.34 128 -112.68 128 -112 128 C-111.86 126.91 -111.71 125.81 -111.56 124.69 C-111 121 -111 121 -110 118 C-109.65 116.34 -109.32 114.67 -109 113 C-108.34 113 -107.68 113 -107 113 C-106.86 112.24 -106.71 111.47 -106.56 110.69 C-105.87 107.36 -105.43 105.43 -103 103 C-102.71 102.38 -102.42 101.76 -102.12 101.12 C-101 99 -101 99 -99 97.06 C-96.87 95.13 -96.87 95.13 -96.06 92.56 C-94.68 89.24 -92.62 87.43 -90 85 C-89.44 84.4 -88.89 83.8 -88.31 83.19 C-87 82 -87 82 -85 82 C-84.5 80.51 -84.5 80.51 -84 79 C-81.44 77.81 -81.44 77.81 -79 77 C-79 76.34 -79 75.68 -79 75 C-76.33 73.67 -73.67 72.33 -71 71 C-70.4 70.55 -69.8 70.09 -69.19 69.62 C-63.49 65.4 -58.21 63 -51 63 C-51 62.34 -51 61.68 -51 61 C-48.7 59.85 -46.92 59.69 -44.38 59.44 C-43.56 59.35 -42.74 59.27 -41.9 59.18 C-41.27 59.12 -40.65 59.06 -40 59 C-40 58.67 -40 58.34 -40 58 C-37.03 58 -34.06 58 -31 58 C-31.01 57.14 -31.01 56.28 -31.02 55.4 C-31.03 52.21 -31.05 49.02 -31.05 45.83 C-31.06 44.45 -31.07 43.07 -31.08 41.69 C-31.09 39.71 -31.09 37.72 -31.1 35.73 C-31.1 34.54 -31.11 33.35 -31.11 32.12 C-30.95 27.75 -30.44 25.66 -28 22 C-27.21 20.42 -26.47 18.81 -25.75 17.19 C-22.9 11.99 -19.7 8.79 -14 7 C-14 6.34 -14 5.68 -14 5 C-12.02 5 -10.04 5 -8 5 C-8 4.34 -8 3.68 -8 3 C-5.36 2.34 -2.72 1.68 0 1 C0 0.67 0 0.34 0 0 Z " fill="white" transform="translate(633,404)"/>
<path d="M0 0 C21.78 0 43.56 0 66 0 C66 0.33 66 0.66 66 1 C44.22 1 22.44 1 0 1 C0 0.67 0 0.34 0 0 Z " fill="#FDFDFD" transform="translate(602,677)"/>
<path d="M0 0 C18.81 0 37.62 0 57 0 C57 0.33 57 0.66 57 1 C38.19 1 19.38 1 0 1 C0 0.67 0 0.34 0 0 Z " fill="#FDFDFD" transform="translate(614,537)"/>
<path d="M0 0 C12.87 0 25.74 0 39 0 C39 0.33 39 0.66 39 1 C26.13 1 13.26 1 0 1 C0 0.67 0 0.34 0 0 Z " fill="#FDFDFD" transform="translate(276,677)"/>
<path d="M0 0 C8.25 0 16.5 0 25 0 C25 0.33 25 0.66 25 1 C16.75 1 8.5 1 0 1 C0 0.67 0 0.34 0 0 Z " fill="#FDFDFD" transform="translate(644,272)"/>
<path d="M0 0 C6.6 0 13.2 0 20 0 C20 0.33 20 0.66 20 1 C13.4 1 6.8 1 0 1 C0 0.67 0 0.34 0 0 Z " fill="#FDFDFD" transform="translate(714,592)"/>
<path d="M0 0 C6.6 0 13.2 0 20 0 C20 0.33 20 0.66 20 1 C13.4 1 6.8 1 0 1 C0 0.67 0 0.34 0 0 Z " fill="#FDFDFD" transform="translate(614,272)"/>
<path d="M0 0 C5.28 0 10.56 0 16 0 C16 0.33 16 0.66 16 1 C10.72 1 5.44 1 0 1 C0 0.67 0 0.34 0 0 Z " fill="#FDFDFD" transform="translate(632,1207)"/>
<path d="M0 0 C3.63 0 7.26 0 11 0 C11 0.33 11 0.66 11 1 C7.37 1 3.74 1 0 1 C0 0.67 0 0.34 0 0 Z " fill="#FDFDFD" transform="translate(676,1205)"/>
<path d="M0 0 C3.63 0 7.26 0 11 0 C11 0.33 11 0.66 11 1 C7.37 1 3.74 1 0 1 C0 0.67 0 0.34 0 0 Z " fill="#FDFDFD" transform="translate(593,1205)"/>
<path d="M0 0 C2.97 0 5.94 0 9 0 C9 0.33 9 0.66 9 1 C6.03 1 3.06 1 0 1 C0 0.67 0 0.34 0 0 Z " fill="#FDFDFD" transform="translate(564,1202)"/>
<path d="M0 0 C0.66 0.33 1.32 0.66 2 1 C0.68 1.99 -0.64 2.98 -2 4 C-1.34 2.68 -0.68 1.36 0 0 Z " fill="#000100" transform="translate(885,912)"/>
<path d="M0 0 C0.33 0 0.66 0 1 0 C1 2.31 1 4.62 1 7 C0.67 7 0.34 7 0 7 C0 4.69 0 2.38 0 0 Z " fill="#FDFDFD" transform="translate(345,636)"/>
<path d="M0 0 C1.65 0 3.3 0 5 0 C5 0.33 5 0.66 5 1 C3.35 1 1.7 1 0 1 C0 0.67 0 0.34 0 0 Z " fill="#FDFDFD" transform="translate(711,1202)"/>
<path d="M0 0 C0.66 0.33 1.32 0.66 2 1 C1.01 1.66 0.02 2.32 -1 3 C-0.67 2.01 -0.34 1.02 0 0 Z " fill="#000100" transform="translate(909,888)"/>
<path d="M0 0 C0.33 0 0.66 0 1 0 C1 1.65 1 3.3 1 5 C0.67 5 0.34 5 0 5 C0 3.35 0 1.7 0 0 Z " fill="#FDFDFD" transform="translate(760,739)"/>
<path d="M0 0 C0.33 0 0.66 0 1 0 C1 1.65 1 3.3 1 5 C0.67 5 0.34 5 0 5 C0 3.35 0 1.7 0 0 Z " fill="#FDFDFD" transform="translate(1200,551)"/>
<path d="M0 0 C0.33 0 0.66 0 1 0 C1 1.65 1 3.3 1 5 C0.67 5 0.34 5 0 5 C0 3.35 0 1.7 0 0 Z " fill="#FDFDFD" transform="translate(760,536)"/>
<path d="M0 0 C1.65 0 3.3 0 5 0 C5 0.33 5 0.66 5 1 C3.35 1 1.7 1 0 1 C0 0.67 0 0.34 0 0 Z " fill="#FDFDFD" transform="translate(700,277)"/>
<path d="M0 0 C0.66 0.33 1.32 0.66 2 1 C1.01 1.66 0.02 2.32 -1 3 C-0.67 2.01 -0.34 1.02 0 0 Z " fill="#000100" transform="translate(269,208)"/>
<path d="M0 0 C4 1 4 1 4 1 Z " fill="#FDFDFD" transform="translate(679,817)"/>
<path d="M0 0 C1 4 1 4 1 4 Z " fill="#FDFDFD" transform="translate(275,687)"/>
<path d="M0 0 C1 4 1 4 1 4 Z " fill="#FDFDFD" transform="translate(760,677)"/>
<path d="M0 0 C4 1 4 1 4 1 Z " fill="#FDFDFD" transform="translate(687,275)"/>
<path d="M0 0 C4 1 4 1 4 1 Z " fill="#FDFDFD" transform="translate(586,275)"/>
<path d="M0 0 C3 1 3 1 3 1 Z " fill="#FDFDFD" transform="translate(726,1200)"/>
<path d="M0 0 C3 1 3 1 3 1 Z " fill="#FDFDFD" transform="translate(551,1200)"/>
<path d="M0 0 C3 1 3 1 3 1 Z " fill="#FDFDFD" transform="translate(754,1195)"/>
<path d="M0 0 C3 1 3 1 3 1 Z " fill="#FDFDFD" transform="translate(523,1195)"/>
<path d="M0 0 C3 1 3 1 3 1 Z " fill="#FDFDFD" transform="translate(776,1190)"/>
<path d="M0 0 C3 1 3 1 3 1 Z " fill="#FDFDFD" transform="translate(501,1190)"/>
<path d="M0 0 C0.99 0.5 0.99 0.5 2 1 C1.01 1.5 1.01 1.5 0 2 C0 1.34 0 0.68 0 0 Z " fill="#000100" transform="translate(887,910)"/>
<path d="" fill="#FDFDFD" transform="translate(0,0)"/>
<path d="" fill="#FDFDFD" transform="translate(0,0)"/>
<path d="M0 0 C3 1 3 1 3 1 Z " fill="#FDFDFD" transform="translate(191,335)"/>
<path d="M0 0 C3 1 3 1 3 1 Z " fill="#FDFDFD" transform="translate(576,277)"/>
<path d="M0 0 C2 1 2 1 2 1 Z " fill="#FDFDFD" transform="translate(691,815)"/>
<path d="M0 0 C2 1 2 1 2 1 Z " fill="#FDFDFD" transform="translate(587,815)"/>
<path d="M0 0 C2 1 2 1 2 1 Z " fill="#FDFDFD" transform="translate(579,812)"/>
<path d="" fill="#FDFDFD" transform="translate(0,0)"/>
<path d="" fill="#FDFDFD" transform="translate(0,0)"/>
<path d="M0 0 C2 1 2 1 2 1 Z " fill="#FDFDFD" transform="translate(496,300)"/>
<path d="M0 0 C2 1 2 1 2 1 Z " fill="#FDFDFD" transform="translate(759,292)"/>
<path d="M0 0 C2 1 2 1 2 1 Z " fill="#FDFDFD" transform="translate(717,280)"/>
<path d="" fill="#FDFDFD" transform="translate(0,0)"/>
<path d="" fill="#FDFDFD" transform="translate(0,0)"/>
<path d="" fill="#FDFDFD" transform="translate(0,0)"/>
<path d="" fill="#FDFDFD" transform="translate(0,0)"/>
<path d="" fill="#FDFDFD" transform="translate(0,0)"/>
<path d="" fill="#FDFDFD" transform="translate(0,0)"/>
<path d="" fill="#FDFDFD" transform="translate(0,0)"/>
<path d="" fill="#FDFDFD" transform="translate(0,0)"/>
<path d="" fill="#FDFDFD" transform="translate(0,0)"/>
<path d="" fill="#FDFDFD" transform="translate(0,0)"/>
<path d="" fill="#FDFDFD" transform="translate(0,0)"/>
<path d="" fill="#FDFDFD" transform="translate(0,0)"/>
<path d="" fill="#FDFDFD" transform="translate(0,0)"/>
<path d="" fill="#FDFDFD" transform="translate(0,0)"/>
<path d="" fill="#FDFDFD" transform="translate(0,0)"/>
<path d="" fill="#FDFDFD" transform="translate(0,0)"/>
<path d="" fill="#FDFDFD" transform="translate(0,0)"/>
<path d="" fill="#FDFDFD" transform="translate(0,0)"/>
<path d="" fill="#FDFDFD" transform="translate(0,0)"/>
<path d="" fill="#FDFDFD" transform="translate(0,0)"/>
<path d="" fill="#000100" transform="translate(0,0)"/>
<path d="" fill="#000100" transform="translate(0,0)"/>
<path d="" fill="#000100" transform="translate(0,0)"/>
<path d="" fill="#000100" transform="translate(0,0)"/>
<path d="" fill="#000100" transform="translate(0,0)"/>
<path d="" fill="#000100" transform="translate(0,0)"/>
<path d="" fill="#000100" transform="translate(0,0)"/>
<path d="" fill="#000100" transform="translate(0,0)"/>
<path d="" fill="#FDFDFD" transform="translate(0,0)"/>
<path d="" fill="#000100" transform="translate(0,0)"/>
<path d="" fill="#000100" transform="translate(0,0)"/>
<path d="" fill="#000100" transform="translate(0,0)"/>
<path d="" fill="#000100" transform="translate(0,0)"/>
<path d="" fill="#000100" transform="translate(0,0)"/>
<path d="" fill="#000100" transform="translate(0,0)"/>
<path d="" fill="#000100" transform="translate(0,0)"/>
<path d="" fill="#000100" transform="translate(0,0)"/>
<path d="" fill="#000100" transform="translate(0,0)"/>
<path d="" fill="#000100" transform="translate(0,0)"/>
<path d="" fill="#000100" transform="translate(0,0)"/>
<path d="" fill="#000100" transform="translate(0,0)"/>
<path d="" fill="#000100" transform="translate(0,0)"/>
<path d="" fill="#000100" transform="translate(0,0)"/>
<path d="" fill="#000100" transform="translate(0,0)"/>
<path d="" fill="#000100" transform="translate(0,0)"/>
<path d="" fill="#000100" transform="translate(0,0)"/>
<path d="" fill="#FDFDFD" transform="translate(0,0)"/>
<path d="" fill="#FDFDFD" transform="translate(0,0)"/>
<path d="" fill="#FDFDFD" transform="translate(0,0)"/>
<path d="" fill="#000100" transform="translate(0,0)"/>
<path d="" fill="#FDFDFD" transform="translate(0,0)"/>
<path d="" fill="#000100" transform="translate(0,0)"/>
<path d="" fill="#FDFDFD" transform="translate(0,0)"/>
<path d="" fill="#000100" transform="translate(0,0)"/>
<path d="" fill="#FDFDFD" transform="translate(0,0)"/>
<path d="" fill="#FDFDFD" transform="translate(0,0)"/>
<path d="" fill="#FDFDFD" transform="translate(0,0)"/>
<path d="" fill="#FDFDFD" transform="translate(0,0)"/>
<path d="" fill="#FDFDFD" transform="translate(0,0)"/>
<path d="" fill="#FDFDFD" transform="translate(0,0)"/>
<path d="" fill="#000100" transform="translate(0,0)"/>
<path d="" fill="#000100" transform="translate(0,0)"/>
<path d="" fill="#000100" transform="translate(0,0)"/>
<path d="" fill="#000100" transform="translate(0,0)"/>
<path d="" fill="#FDFDFD" transform="translate(0,0)"/>
<path d="" fill="#FDFDFD" transform="translate(0,0)"/>
<path d="" fill="#FDFDFD" transform="translate(0,0)"/>
<path d="" fill="#FDFDFD" transform="translate(0,0)"/>
<path d="" fill="#FDFDFD" transform="translate(0,0)"/>
<path d="" fill="#000100" transform="translate(0,0)"/>
<path d="" fill="#000100" transform="translate(0,0)"/>
<path d="" fill="#FDFDFD" transform="translate(0,0)"/>
<path d="" fill="#FDFDFD" transform="translate(0,0)"/>
<path d="" fill="#000100" transform="translate(0,0)"/>
<path d="" fill="#FDFDFD" transform="translate(0,0)"/>
<path d="" fill="#FDFDFD" transform="translate(0,0)"/>
<path d="" fill="#000100" transform="translate(0,0)"/>
<path d="" fill="#000100" transform="translate(0,0)"/>
<path d="" fill="#000100" transform="translate(0,0)"/>
<path d="" fill="#FDFDFD" transform="translate(0,0)"/>
<path d="" fill="#FDFDFD" transform="translate(0,0)"/>
<path d="" fill="#FDFDFD" transform="translate(0,0)"/>
<path d="" fill="#FDFDFD" transform="translate(0,0)"/>
<path d="" fill="#FDFDFD" transform="translate(0,0)"/>
<path d="" fill="#000100" transform="translate(0,0)"/>
<path d="" fill="#000100" transform="translate(0,0)"/>
<path d="" fill="#000100" transform="translate(0,0)"/>
<path d="" fill="#000100" transform="translate(0,0)"/>
<path d="" fill="#000100" transform="translate(0,0)"/>
<path d="" fill="#000100" transform="translate(0,0)"/>
<path d="" fill="#000100" transform="translate(0,0)"/>
<path d="" fill="#000100" transform="translate(0,0)"/>
<path d="" fill="#000100" transform="translate(0,0)"/>
<path d="" fill="#000100" transform="translate(0,0)"/>
<path d="" fill="#000100" transform="translate(0,0)"/>
<path d="" fill="#FDFDFD" transform="translate(0,0)"/>
<path d="" fill="#FDFDFD" transform="translate(0,0)"/>
<path d="" fill="#FDFDFD" transform="translate(0,0)"/>
<path d="" fill="#000100" transform="translate(0,0)"/>
<path d="" fill="#000100" transform="translate(0,0)"/>
<path d="" fill="#000100" transform="translate(0,0)"/>
<path d="" fill="#FDFDFD" transform="translate(0,0)"/>
<path d="" fill="#000100" transform="translate(0,0)"/>
<path d="" fill="#000100" transform="translate(0,0)"/>
<path d="" fill="#000100" transform="translate(0,0)"/>
<path d="" fill="#FDFDFD" transform="translate(0,0)"/>
<path d="" fill="#FDFDFD" transform="translate(0,0)"/>
<path d="" fill="#FDFDFD" transform="translate(0,0)"/>
<path d="" fill="#000100" transform="translate(0,0)"/>
<path d="" fill="#000100" transform="translate(0,0)"/>
<path d="" fill="#FDFDFD" transform="translate(0,0)"/>
<path d="" fill="#FDFDFD" transform="translate(0,0)"/>
<path d="" fill="#000100" transform="translate(0,0)"/>
<path d="" fill="#000100" transform="translate(0,0)"/>
<path d="" fill="#000100" transform="translate(0,0)"/>
<path d="" fill="#000100" transform="translate(0,0)"/>
<path d="" fill="#FDFDFD" transform="translate(0,0)"/>
<path d="" fill="#000100" transform="translate(0,0)"/>
<path d="" fill="#000100" transform="translate(0,0)"/>
<path d="" fill="#000100" transform="translate(0,0)"/>
<path d="" fill="#FDFDFD" transform="translate(0,0)"/>
<path d="" fill="#FDFDFD" transform="translate(0,0)"/>
<path d="" fill="#000100" transform="translate(0,0)"/>
<path d="" fill="#000100" transform="translate(0,0)"/>
<path d="" fill="#FDFDFD" transform="translate(0,0)"/>
<path d="" fill="#FDFDFD" transform="translate(0,0)"/>
<path d="" fill="#000100" transform="translate(0,0)"/>
<path d="" fill="#FDFDFD" transform="translate(0,0)"/>
<path d="" fill="#FDFDFD" transform="translate(0,0)"/>
<path d="" fill="#000100" transform="translate(0,0)"/>
<path d="" fill="#000100" transform="translate(0,0)"/>
<path d="" fill="#000100" transform="translate(0,0)"/>
<path d="" fill="#000100" transform="translate(0,0)"/>
<path d="" fill="#000100" transform="translate(0,0)"/>
<path d="" fill="#000100" transform="translate(0,0)"/>
<path d="" fill="#FDFDFD" transform="translate(0,0)"/>
<path d="" fill="#FDFDFD" transform="translate(0,0)"/>
<path d="" fill="#FDFDFD" transform="translate(0,0)"/>
<path d="" fill="#FDFDFD" transform="translate(0,0)"/>
<path d="" fill="#FDFDFD" transform="translate(0,0)"/>
<path d="" fill="#FDFDFD" transform="translate(0,0)"/>
<path d="" fill="#FDFDFD" transform="translate(0,0)"/>
<path d="" fill="#FDFDFD" transform="translate(0,0)"/>
<path d="" fill="#FDFDFD" transform="translate(0,0)"/>
<path d="" fill="#000100" transform="translate(0,0)"/>
<path d="" fill="#FDFDFD" transform="translate(0,0)"/>
<path d="" fill="#000100" transform="translate(0,0)"/>
<path d="" fill="#FDFDFD" transform="translate(0,0)"/>
<path d="" fill="#FDFDFD" transform="translate(0,0)"/>
<path d="" fill="#FDFDFD" transform="translate(0,0)"/>
<path d="" fill="#FDFDFD" transform="translate(0,0)"/>
<path d="" fill="#FDFDFD" transform="translate(0,0)"/>
<path d="" fill="#FDFDFD" transform="translate(0,0)"/>
<path d="" fill="#FDFDFD" transform="translate(0,0)"/>
<path d="" fill="#FDFDFD" transform="translate(0,0)"/>
<path d="" fill="#FDFDFD" transform="translate(0,0)"/>
<path d="" fill="#FDFDFD" transform="translate(0,0)"/>
<path d="" fill="#000100" transform="translate(0,0)"/>
<path d="" fill="#000100" transform="translate(0,0)"/>
<path d="" fill="#000100" transform="translate(0,0)"/>
<path d="" fill="#000100" transform="translate(0,0)"/>
<path d="" fill="#000100" transform="translate(0,0)"/>
<path d="" fill="#000100" transform="translate(0,0)"/>
<path d="" fill="#000100" transform="translate(0,0)"/>
<path d="" fill="#000100" transform="translate(0,0)"/>
<path d="" fill="#000100" transform="translate(0,0)"/>
<path d="" fill="#000100" transform="translate(0,0)"/>
<path d="" fill="#000100" transform="translate(0,0)"/>
<path d="" fill="#000100" transform="translate(0,0)"/>
<path d="" fill="#000100" transform="translate(0,0)"/>
<path d="" fill="#000100" transform="translate(0,0)"/>
<path d="" fill="#000100" transform="translate(0,0)"/>
<path d="" fill="#000100" transform="translate(0,0)"/>
<path d="" fill="#000100" transform="translate(0,0)"/>
<path d="" fill="#000100" transform="translate(0,0)"/>
<path d="" fill="#000100" transform="translate(0,0)"/>
<path d="" fill="#000100" transform="translate(0,0)"/>
</svg>
