<?xml version="1.0" encoding="UTF-8"?>
<!-- Generator: visioncortex VTracer 0.6.3 -->
<svg version="1.1" xmlns="http://www.w3.org/2000/svg" width="1280" height="1280">
<path d="M0 0 C0.69 0.45 1.38 0.89 2.09 1.36 C7.95 5.13 13.86 8.71 20 12 C20 12.66 20 13.32 20 14 C20.71 14.11 21.43 14.21 22.16 14.32 C25.29 15.07 27.62 16.27 30.44 17.81 C36.28 20.84 41.91 22.59 48.26 24.24 C51 25 51 25 52 26 C72.83 32.77 94.99 31.71 116.58 31.63 C121.95 31.61 127.32 31.63 132.7 31.64 C142.09 31.65 151.48 31.65 160.87 31.63 C174.84 31.61 188.8 31.61 202.77 31.63 C226.27 31.64 249.77 31.64 273.27 31.62 C296.53 31.61 319.79 31.6 343.06 31.61 C344.14 31.61 344.14 31.61 345.25 31.61 C352.6 31.61 359.95 31.62 367.3 31.62 C383 31.63 398.69 31.63 414.39 31.64 C415.51 31.64 415.51 31.64 416.65 31.64 C452.22 31.65 487.79 31.65 523.36 31.64 C525.72 31.64 528.08 31.64 530.44 31.64 C537.52 31.64 544.61 31.64 551.7 31.63 C554.07 31.63 556.44 31.63 558.8 31.63 C561.96 31.63 565.12 31.63 568.28 31.63 C603.86 31.62 639.43 31.62 675.01 31.62 C677.37 31.62 679.73 31.62 682.09 31.62 C717.66 31.62 753.23 31.62 788.8 31.63 C789.55 31.63 790.3 31.63 791.07 31.64 C805.26 31.64 819.45 31.64 833.65 31.65 C842.46 31.65 851.27 31.66 860.09 31.66 C861.17 31.66 861.17 31.66 862.27 31.66 C886.26 31.67 910.25 31.66 934.24 31.65 C957.59 31.64 980.94 31.63 1004.29 31.64 C1018.17 31.65 1032.05 31.64 1045.93 31.63 C1055.19 31.62 1064.45 31.62 1073.71 31.63 C1079 31.63 1084.28 31.63 1089.56 31.62 C1094.36 31.61 1099.17 31.61 1103.97 31.63 C1105.7 31.63 1107.43 31.63 1109.16 31.62 C1121.72 31.56 1131.98 32.59 1142 41 C1151.69 51.14 1152.44 60.79 1152.36 74.22 C1152.36 75.87 1152.36 77.51 1152.36 79.16 C1152.37 83.6 1152.35 88.05 1152.34 92.5 C1152.32 97.16 1152.32 101.81 1152.32 106.47 C1152.32 114.28 1152.3 122.09 1152.28 129.9 C1152.25 139.94 1152.24 149.97 1152.24 160.01 C1152.23 168.63 1152.22 177.26 1152.21 185.88 C1152.2 188.66 1152.2 191.43 1152.2 194.21 C1152.19 198.56 1152.18 202.91 1152.17 207.26 C1152.16 208.87 1152.16 210.47 1152.16 212.07 C1152.16 214.24 1152.15 216.42 1152.14 218.59 C1152.14 219.81 1152.13 221.03 1152.13 222.29 C1152 225 1152 225 1151 226 C1148.14 226.11 1145.31 226.15 1142.46 226.14 C1141.55 226.15 1140.64 226.15 1139.71 226.16 C1136.64 226.17 1133.58 226.17 1130.51 226.17 C1128.33 226.18 1126.14 226.19 1123.95 226.19 C1119.23 226.21 1114.5 226.22 1109.78 226.23 C1102.3 226.25 1094.82 226.27 1087.35 226.29 C1076.86 226.33 1066.37 226.36 1055.88 226.39 C1055.21 226.39 1054.55 226.4 1053.86 226.4 C1044.43 226.43 1035 226.45 1025.56 226.47 C1024.57 226.47 1024.57 226.47 1023.55 226.48 C1022.56 226.48 1022.56 226.48 1021.55 226.48 C1010.48 226.51 999.42 226.54 988.35 226.58 C980.93 226.61 973.5 226.63 966.08 226.64 C961.44 226.65 956.81 226.67 952.17 226.69 C950.03 226.69 947.89 226.7 945.75 226.7 C926.31 225.85 926.31 225.85 909 233 C908.34 233 907.68 233 907 233 C907 233.66 907 234.32 907 235 C905.62 236.62 905.62 236.62 904 238 C903.34 238 902.68 238 902 238 C902 238.99 902 239.98 902 241 C901.34 241 900.68 241 900 241 C899.86 241.78 899.71 242.57 899.56 243.38 C899 246 899 246 898 248 C897.9 250.74 897.85 253.46 897.85 256.2 C897.85 257.49 897.85 257.49 897.84 258.8 C897.83 261.7 897.83 264.59 897.82 267.49 C897.82 269.55 897.81 271.62 897.8 273.69 C897.79 279.32 897.78 284.95 897.77 290.58 C897.76 294.1 897.76 297.61 897.75 301.13 C897.73 312.12 897.72 323.12 897.71 334.12 C897.7 346.82 897.67 359.52 897.63 372.22 C897.6 382.03 897.59 391.85 897.58 401.66 C897.58 407.52 897.57 413.38 897.55 419.24 C897.52 424.76 897.52 430.28 897.53 435.79 C897.53 437.82 897.52 439.84 897.51 441.87 C897.49 444.63 897.5 447.4 897.51 450.16 C897.5 450.96 897.49 451.76 897.48 452.58 C897.54 458.2 899.02 461.26 902 466 C902 466.99 902 467.98 902 469 C902.99 469.33 903.98 469.66 905 470 C905 470.66 905 471.32 905 472 C905.66 472 906.32 472 907 472 C907 472.66 907 473.32 907 474 C908.66 474.69 910.33 475.35 912 476 C912.63 476.25 913.27 476.5 913.92 476.76 C919.68 478.87 924.72 479.43 930.81 479.4 C931.76 479.41 932.71 479.41 933.68 479.42 C936.83 479.44 939.98 479.43 943.14 479.43 C945.4 479.44 947.67 479.45 949.94 479.46 C956.08 479.49 962.22 479.5 968.36 479.51 C974.78 479.52 981.2 479.54 987.62 479.57 C998.4 479.6 1009.17 479.63 1019.95 479.65 C1031.04 479.67 1042.13 479.7 1053.23 479.74 C1053.91 479.74 1054.6 479.74 1055.3 479.74 C1058.74 479.76 1062.17 479.77 1065.61 479.78 C1094.07 479.87 1122.54 479.94 1151 480 C1152.69 483.39 1152.14 487.24 1152.14 490.96 C1152.14 492.37 1152.14 492.37 1152.15 493.81 C1152.16 496.98 1152.16 500.15 1152.16 503.32 C1152.17 505.59 1152.17 507.85 1152.18 510.12 C1152.19 516.28 1152.2 522.45 1152.2 528.62 C1152.2 532.47 1152.21 536.32 1152.21 540.17 C1152.22 550.83 1152.23 561.5 1152.24 572.16 C1152.24 572.84 1152.24 573.52 1152.24 574.23 C1152.24 574.91 1152.24 575.59 1152.24 576.3 C1152.24 577.69 1152.24 579.07 1152.24 580.46 C1152.24 581.15 1152.24 581.84 1152.24 582.54 C1152.24 593.68 1152.26 604.83 1152.29 615.97 C1152.31 627.4 1152.32 638.84 1152.32 650.28 C1152.32 656.7 1152.33 663.12 1152.35 669.54 C1152.36 675.58 1152.37 681.62 1152.36 687.67 C1152.36 689.88 1152.36 692.1 1152.37 694.32 C1152.38 697.35 1152.38 700.37 1152.37 703.4 C1152.38 704.72 1152.38 704.72 1152.39 706.06 C1152.33 713.26 1150.25 718.31 1146.44 724.44 C1146.02 725.12 1145.61 725.8 1145.18 726.5 C1144.6 727.24 1144.6 727.24 1144 728 C1143.34 728 1142.68 728 1142 728 C1142 728.66 1142 729.32 1142 730 C1140.21 731.44 1140.21 731.44 1137.81 733 C1137.04 733.52 1136.26 734.03 1135.46 734.56 C1130.46 737.48 1126.66 738.25 1120.85 738.25 C1120.14 738.25 1119.43 738.26 1118.69 738.26 C1116.29 738.27 1113.89 738.26 1111.49 738.25 C1109.75 738.26 1108.01 738.26 1106.27 738.26 C1101.46 738.27 1096.64 738.27 1091.83 738.26 C1086.61 738.26 1081.38 738.27 1076.16 738.27 C1066.99 738.28 1057.82 738.28 1048.66 738.28 C1035.02 738.27 1021.39 738.28 1007.76 738.29 C982.71 738.3 957.66 738.3 932.61 738.3 C929.06 738.3 925.5 738.3 921.95 738.3 C920.9 738.3 920.9 738.3 919.82 738.3 C904.19 738.3 888.57 738.3 872.94 738.31 C869.37 738.31 865.81 738.31 862.24 738.31 C860.81 738.31 859.38 738.31 857.95 738.31 C857.24 738.31 856.53 738.31 855.8 738.31 C854.36 738.31 852.93 738.31 851.49 738.31 C810.76 738.32 770.02 738.32 729.29 738.32 C728.53 738.32 727.78 738.32 727 738.32 C718.59 738.32 710.17 738.32 701.76 738.32 C701 738.32 700.24 738.32 699.46 738.32 C693.14 738.32 693.14 738.32 690.24 738.32 C641.66 738.31 593.08 738.32 544.5 738.34 C532.26 738.34 520.02 738.35 507.78 738.35 C507.03 738.35 506.28 738.35 505.5 738.35 C482.27 738.36 459.05 738.36 435.82 738.36 C435.09 738.36 434.36 738.36 433.61 738.36 C417.6 738.37 401.6 738.36 385.59 738.36 C379.86 738.36 374.13 738.36 368.4 738.36 C366.98 738.36 365.55 738.36 364.13 738.36 C341.42 738.36 318.72 738.37 296.01 738.38 C272.5 738.39 248.99 738.39 225.48 738.38 C211.93 738.37 198.38 738.37 184.82 738.39 C175.77 738.4 166.72 738.39 157.67 738.38 C152.51 738.38 147.35 738.37 142.19 738.39 C137.49 738.4 132.8 738.39 128.1 738.38 C126.41 738.38 124.73 738.38 123.04 738.39 C113.33 738.43 104.41 737.68 95 735 C94.26 734.81 93.53 734.62 92.77 734.42 C73.18 729.22 56.36 719.06 41 706 C40.33 705.45 39.66 704.9 38.96 704.34 C34.89 700.98 31.05 697.34 28 693 C28 692.34 28 691.68 28 691 C27.34 691 26.68 691 26 691 C24.36 688.85 22.85 686.7 21.38 684.44 C20.71 683.42 20.71 683.42 20.03 682.39 C2.88 655.88 -2.47 629.59 -2.37 598.36 C-2.38 595.78 -2.38 593.2 -2.39 590.62 C-2.4 585.04 -2.39 579.45 -2.38 573.87 C-2.37 565.57 -2.37 557.27 -2.38 548.97 C-2.39 534.15 -2.39 519.32 -2.38 504.5 C-2.37 491.54 -2.36 478.57 -2.36 465.61 C-2.36 464.75 -2.36 463.89 -2.36 463 C-2.36 459.5 -2.36 456.01 -2.36 452.52 C-2.37 419.77 -2.36 387.02 -2.33 354.28 C-2.32 325.17 -2.31 296.07 -2.32 266.96 C-2.32 265.09 -2.32 263.22 -2.32 261.35 C-2.32 260.43 -2.32 259.5 -2.32 258.55 C-2.32 253.89 -2.32 249.24 -2.32 244.58 C-2.32 243.66 -2.32 242.74 -2.32 241.8 C-2.32 217.48 -2.32 193.16 -2.31 168.84 C-2.31 166.22 -2.31 163.61 -2.31 160.99 C-2.31 159.26 -2.31 157.52 -2.31 155.79 C-2.3 143.68 -2.3 131.57 -2.3 119.46 C-2.31 103.88 -2.3 88.29 -2.29 72.7 C-2.28 64.45 -2.27 56.2 -2.28 47.95 C-2.28 41.81 -2.28 35.66 -2.27 29.52 C-2.26 27.02 -2.26 24.53 -2.27 22.03 C-2.27 18.66 -2.26 15.28 -2.25 11.91 C-2.26 10.92 -2.26 9.94 -2.27 8.92 C-2.26 8.03 -2.26 7.14 -2.25 6.22 C-2.25 5.45 -2.25 4.67 -2.25 3.88 C-2 2 -2 2 0 0 Z " fill="white" transform="translate(66,540)"/>
<path d="M0 0 C1.66 -0 3.33 -0.01 4.99 -0.01 C9.53 -0.02 14.08 -0.01 18.62 0 C23.53 0.02 28.45 0.01 33.36 0 C42.96 -0 52.57 0.01 62.18 0.03 C73.36 0.04 84.55 0.04 95.73 0.04 C115.67 0.05 135.62 0.06 155.56 0.09 C174.93 0.11 194.3 0.12 213.66 0.13 C215.46 0.13 215.46 0.13 217.28 0.13 C219.69 0.13 222.09 0.13 224.5 0.13 C225.69 0.13 226.87 0.13 228.1 0.13 C229.28 0.13 230.46 0.13 231.68 0.13 C250.13 0.13 268.57 0.15 287.02 0.16 C293.71 0.16 300.4 0.17 307.1 0.17 C317.7 0.17 328.31 0.18 338.92 0.2 C343.76 0.2 348.61 0.21 353.46 0.21 C357.89 0.21 362.32 0.21 366.75 0.22 C368.36 0.23 369.97 0.23 371.58 0.23 C373.76 0.22 375.93 0.23 378.11 0.24 C379.32 0.24 380.53 0.24 381.78 0.24 C384.46 0.37 384.46 0.37 385.46 1.37 C385.6 4.24 385.67 7.1 385.71 9.98 C385.74 11.78 385.77 13.59 385.81 15.39 C385.85 18.24 385.9 21.08 385.94 23.92 C386.23 43.72 387.85 61.68 398.23 79.1 C399.38 81.22 400 83.01 400.46 85.37 C401.12 85.37 401.78 85.37 402.46 85.37 C403.86 87.06 405.18 88.83 406.46 90.62 C407.16 91.59 407.86 92.57 408.59 93.57 C410.46 96.37 410.46 96.37 411.59 98.66 C412.77 100.98 414.12 101.33 416.46 102.37 C418.71 103.87 418.71 103.87 420.46 105.37 C420.46 106.03 420.46 106.69 420.46 107.37 C421.14 107.59 421.82 107.82 422.52 108.05 C425.49 109.38 427.85 111.1 430.47 113.01 C445.24 123.06 462.77 126.77 480.34 126.68 C481.48 126.68 482.63 126.67 483.81 126.67 C491.82 126.55 498.85 125.95 506.46 123.37 C507.58 123.03 508.7 122.69 509.85 122.34 C517.76 119.76 524.63 116.23 531.69 111.94 C534.46 110.37 534.46 110.37 536.46 110.37 C536.46 109.71 536.46 109.05 536.46 108.37 C538.32 106.68 538.32 106.68 540.77 104.8 C541.57 104.18 542.37 103.56 543.2 102.93 C545.46 101.37 545.46 101.37 548.46 100.37 C549.16 99.05 549.81 97.71 550.46 96.37 C552.57 93.56 554.73 90.8 556.92 88.06 C558.92 85.5 560.42 83.48 561.46 80.37 C562.12 80.37 562.78 80.37 563.46 80.37 C563.56 79.65 563.67 78.92 563.77 78.18 C564.53 75.08 565.81 73.09 567.46 70.37 C575.06 53.58 574.63 33.91 575.01 15.85 C575.06 13.49 575.12 11.13 575.18 8.77 C575.19 8.04 575.21 7.31 575.22 6.56 C575.35 1.48 575.35 1.48 576.46 0.37 C578.2 0.27 579.95 0.23 581.69 0.23 C583.41 0.22 583.41 0.22 585.15 0.22 C587.06 0.21 587.06 0.21 589 0.21 C590.35 0.21 591.71 0.21 593.06 0.2 C596.79 0.19 600.51 0.18 604.24 0.18 C608.26 0.17 612.28 0.16 616.29 0.15 C626 0.13 635.71 0.11 645.42 0.1 C648.16 0.09 650.91 0.09 653.65 0.09 C670.67 0.06 687.69 0.04 704.71 0.03 C708.66 0.02 712.6 0.02 716.55 0.02 C717.53 0.02 718.51 0.02 719.52 0.02 C735.4 0 751.28 -0.03 767.16 -0.07 C783.45 -0.11 799.75 -0.14 816.05 -0.14 C825.2 -0.15 834.35 -0.16 843.5 -0.19 C851.3 -0.22 859.1 -0.23 866.89 -0.22 C870.87 -0.21 874.85 -0.22 878.83 -0.24 C882.47 -0.26 886.12 -0.26 889.76 -0.24 C891.7 -0.24 893.63 -0.26 895.56 -0.28 C905.72 -0.19 913.43 2.8 920.93 9.7 C927.28 16.6 929.71 24.2 929.7 33.55 C929.7 34.24 929.7 34.93 929.71 35.63 C929.71 37.92 929.7 40.21 929.69 42.49 C929.69 44.14 929.69 45.78 929.69 47.43 C929.69 51.89 929.68 56.34 929.66 60.8 C929.65 65.46 929.65 70.12 929.65 74.78 C929.64 83.61 929.62 92.43 929.6 101.25 C929.58 111.3 929.57 121.34 929.56 131.39 C929.54 152.05 929.51 172.71 929.46 193.37 C926.12 194.48 923.64 194.49 920.12 194.5 C919.47 194.5 918.82 194.5 918.15 194.5 C915.95 194.5 913.75 194.5 911.55 194.5 C909.96 194.5 908.37 194.5 906.78 194.51 C902.37 194.51 897.97 194.51 893.57 194.51 C888.79 194.51 884.01 194.51 879.23 194.52 C869.73 194.52 860.24 194.53 850.74 194.53 C839.38 194.53 828.01 194.53 816.64 194.54 C789.16 194.56 761.68 194.56 734.2 194.57 C721.2 194.57 708.2 194.57 695.21 194.58 C651.42 194.59 607.64 194.6 563.85 194.6 C561.76 194.61 559.66 194.61 557.57 194.61 C553.37 194.61 549.17 194.61 544.98 194.61 C540.06 194.61 535.15 194.61 530.23 194.61 C528.82 194.61 527.42 194.61 526.01 194.61 C480.85 194.61 435.68 194.63 390.52 194.65 C358.07 194.67 325.63 194.68 293.18 194.69 C292.51 194.69 291.84 194.69 291.16 194.69 C275.84 194.69 260.53 194.69 245.21 194.69 C239.97 194.69 234.73 194.69 229.49 194.69 C228.2 194.69 226.91 194.69 225.58 194.69 C204.82 194.69 184.05 194.7 163.28 194.72 C142.4 194.73 121.53 194.74 100.65 194.73 C88.25 194.72 75.84 194.73 63.44 194.74 C55.15 194.75 46.86 194.75 38.57 194.74 C33.85 194.74 29.13 194.74 24.41 194.75 C20.11 194.76 15.81 194.76 11.5 194.74 C9.96 194.74 8.43 194.74 6.89 194.75 C-6.58 194.82 -20.15 193.57 -32.79 188.62 C-33.75 188.24 -33.75 188.24 -34.73 187.86 C-41.28 185.22 -47.44 181.9 -53.54 178.37 C-53.54 177.71 -53.54 177.05 -53.54 176.37 C-54.53 176.37 -55.52 176.37 -56.54 176.37 C-56.54 175.71 -56.54 175.05 -56.54 174.37 C-57.12 174.09 -57.7 173.81 -58.31 173.52 C-66.04 169.52 -71.69 163.55 -76.54 156.37 C-76.54 155.71 -76.54 155.05 -76.54 154.37 C-77.2 154.37 -77.86 154.37 -78.54 154.37 C-84.18 146.65 -88.16 138.27 -91.54 129.37 C-91.88 128.56 -92.22 127.75 -92.57 126.91 C-99.58 108.48 -99.5 82.62 -91.6 64.55 C-91.26 63.86 -90.91 63.17 -90.56 62.46 C-89.46 60.2 -88.64 57.92 -87.79 55.55 C-85.31 49.24 -81.42 43.89 -77.54 38.37 C-76.88 37.38 -76.22 36.39 -75.54 35.37 C-74.88 35.37 -74.22 35.37 -73.54 35.37 C-73.31 34.81 -73.07 34.26 -72.83 33.69 C-65.65 20.8 -49.13 10.88 -35.54 6.37 C-34.23 5.85 -32.91 5.33 -31.6 4.8 C-30.25 4.32 -28.9 3.84 -27.54 3.37 C-26.44 2.98 -26.44 2.98 -25.32 2.58 C-16.92 -0.05 -8.7 -0.05 0 0 Z " fill="white" transform="translate(160.53958129882813,316.63250732421875)"/>
<path d="M0 0 C11.22 0 22.44 0 34 0 C34 0.66 34 1.32 34 2 C35.06 2.35 35.06 2.35 36.15 2.71 C39.52 4.24 41.83 6.19 44.62 8.62 C49.56 12.88 54.64 16.7 60.02 20.41 C60.67 20.93 61.33 21.46 62 22 C62 22.66 62 23.32 62 24 C62.52 24.22 63.04 24.44 63.57 24.67 C66.95 26.52 69.82 28.9 72.81 31.31 C74.01 32.27 75.2 33.22 76.39 34.18 C76.98 34.64 77.57 35.11 78.17 35.6 C80.06 37.04 81.99 38.39 83.95 39.73 C84.96 40.48 85.96 41.23 87 42 C87 42.66 87 43.32 87 44 C87.52 44.22 88.04 44.44 88.57 44.67 C91.95 46.52 94.82 48.9 97.81 51.31 C99.01 52.27 100.2 53.22 101.39 54.18 C102.28 54.88 102.28 54.88 103.17 55.6 C105.06 57.04 106.99 58.39 108.95 59.73 C109.96 60.48 110.96 61.23 112 62 C112 62.66 112 63.32 112 64 C112.52 64.22 113.04 64.44 113.57 64.67 C116.95 66.52 119.82 68.9 122.81 71.31 C124.01 72.27 125.2 73.22 126.39 74.18 C127.28 74.88 127.28 74.88 128.17 75.6 C130.06 77.04 131.99 78.39 133.95 79.73 C134.96 80.48 135.96 81.23 137 82 C137 82.66 137 83.32 137 84 C137.52 84.22 138.04 84.44 138.57 84.67 C141.95 86.52 144.82 88.9 147.81 91.31 C149.01 92.27 150.2 93.22 151.39 94.18 C152.28 94.88 152.28 94.88 153.17 95.6 C155.06 97.04 156.99 98.39 158.95 99.73 C159.96 100.48 160.96 101.23 162 102 C162 102.66 162 103.32 162 104 C162.52 104.22 163.04 104.44 163.57 104.67 C166.95 106.52 169.82 108.9 172.81 111.31 C174.01 112.27 175.2 113.22 176.39 114.18 C177.28 114.88 177.28 114.88 178.17 115.6 C180.06 117.04 181.99 118.39 183.95 119.73 C184.96 120.48 185.96 121.23 187 122 C187 122.66 187 123.32 187 124 C187.57 124.27 188.14 124.54 188.73 124.81 C191.08 126.04 193.12 127.43 195.25 129 C196.31 129.77 196.31 129.77 197.39 130.56 C197.92 131.04 198.45 131.51 199 132 C199 132.66 199 133.32 199 134 C199.99 134.33 200.98 134.66 202 135 C202 135.66 202 136.32 202 137 C202.66 137 203.32 137 204 137 C209.93 146.69 211.38 156.61 208.75 167.7 C207.55 171.38 205.88 174.62 204 178 C203.34 178 202.68 178 202 178 C201.67 178.99 201.34 179.98 201 181 C200.34 181 199.68 181 199 181 C199 181.66 199 182.32 199 183 C192.56 188.45 183.49 191.72 175.04 191.27 C161.33 189.46 151.28 180.26 141.08 171.59 C137.87 168.87 134.57 166.27 131.25 163.69 C125.29 159.05 119.42 154.3 113.59 149.5 C110.48 146.95 107.35 144.52 104.03 142.24 C103.03 141.5 102.03 140.76 101 140 C101 139.34 101 138.68 101 138 C100.2 137.73 99.39 137.46 98.56 137.19 C97.72 136.8 96.87 136.4 96 136 C95.67 135.01 95.34 134.02 95 133 C93.35 132.29 91.68 131.63 90 131 C87.69 129.5 87.69 129.5 86 128 C86 127.34 86 126.68 86 126 C85.2 125.63 85.2 125.63 84.38 125.25 C81.42 123.69 78.7 121.97 76 120 C76 119.34 76 118.68 76 118 C75.38 117.69 74.76 117.38 74.12 117.06 C72.75 116.38 71.38 115.69 70 115 C70 114.34 70 113.68 70 113 C69.26 112.73 68.51 112.46 67.75 112.19 C65.11 111.05 63.14 109.91 61 108 C61 107.34 61 106.68 61 106 C60.23 105.63 60.23 105.63 59.44 105.25 C56.23 103.6 53.13 101.8 50 100 C50 101.29 50 102.58 50.01 103.91 C50.05 134.54 50.08 165.17 50.1 195.8 C50.1 199.57 50.11 203.34 50.11 207.12 C50.11 207.87 50.11 208.62 50.11 209.39 C50.12 221.54 50.14 233.69 50.15 245.84 C50.17 258.32 50.18 270.79 50.19 283.26 C50.19 290.96 50.2 298.65 50.22 306.34 C50.23 312.25 50.23 318.15 50.23 324.06 C50.23 326.47 50.23 328.89 50.24 331.31 C50.25 334.62 50.25 337.92 50.24 341.23 C50.25 342.18 50.25 343.13 50.26 344.11 C50.22 353.69 48.67 361.6 44 370 C43.34 370 42.68 370 42 370 C41.67 370.99 41.34 371.98 41 373 C40.34 373 39.68 373 39 373 C39 373.66 39 374.32 39 375 C30.69 381.15 22.32 384.01 12 383 C5.84 381.69 -0.12 379.03 -5 375 C-5 374.34 -5 373.68 -5 373 C-5.66 373 -6.32 373 -7 373 C-7 372.34 -7 371.68 -7 371 C-7.66 371 -8.32 371 -9 371 C-16.95 362.36 -17.31 349.3 -17.24 338.22 C-17.24 337.2 -17.24 336.17 -17.25 335.11 C-17.25 331.71 -17.24 328.3 -17.23 324.89 C-17.23 322.44 -17.23 319.98 -17.23 317.53 C-17.23 312.26 -17.22 306.99 -17.21 301.72 C-17.2 294.11 -17.19 286.49 -17.19 278.87 C-17.18 266.51 -17.17 254.15 -17.15 241.79 C-17.13 229.78 -17.12 217.78 -17.11 205.78 C-17.11 205.04 -17.11 204.3 -17.11 203.53 C-17.11 199.82 -17.1 196.1 -17.1 192.38 C-17.08 161.59 -17.04 130.79 -17 100 C-18.44 101.12 -19.88 102.23 -21.32 103.35 C-22.12 103.97 -22.92 104.59 -23.74 105.23 C-25.5 106.61 -27.22 108.01 -28.94 109.44 C-31 111 -31 111 -33 111 C-33 111.66 -33 112.32 -33 113 C-34.36 114.23 -34.36 114.23 -36.25 115.61 C-36.94 116.12 -37.63 116.63 -38.35 117.15 C-39.44 117.94 -39.44 117.94 -40.56 118.75 C-45.42 122.29 -50.12 125.86 -54.57 129.91 C-56 131 -56 131 -58 131 C-58 131.66 -58 132.32 -58 133 C-59.36 134.23 -59.36 134.23 -61.25 135.61 C-61.94 136.12 -62.63 136.63 -63.35 137.15 C-64.08 137.68 -64.81 138.21 -65.56 138.75 C-70.42 142.29 -75.12 145.86 -79.57 149.91 C-81 151 -81 151 -83 151 C-83 151.66 -83 152.32 -83 153 C-84.36 154.23 -84.36 154.23 -86.25 155.61 C-86.94 156.12 -87.63 156.63 -88.35 157.15 C-89.08 157.68 -89.81 158.21 -90.56 158.75 C-95.42 162.29 -100.12 165.86 -104.57 169.91 C-106 171 -106 171 -108 171 C-108 171.66 -108 172.32 -108 173 C-109.39 174.28 -109.39 174.28 -111.32 175.71 C-112.02 176.24 -112.72 176.76 -113.44 177.29 C-114.18 177.84 -114.92 178.38 -115.69 178.94 C-116.41 179.48 -117.13 180.01 -117.87 180.57 C-126.55 186.99 -135.77 192.55 -147 191 C-153.55 189.65 -159.83 187.37 -165 183 C-165 182.34 -165 181.68 -165 181 C-165.66 181 -166.32 181 -167 181 C-170 177.54 -170 177.54 -170 175 C-170.66 175 -171.32 175 -172 175 C-176.6 165.01 -177.28 155.52 -174 145 C-172.2 140.82 -170.08 137.37 -167 134 C-166.34 134 -165.68 134 -165 134 C-165 133.34 -165 132.68 -165 132 C-163.04 130.32 -161.06 128.74 -159 127.19 C-157.71 126.2 -156.43 125.2 -155.14 124.21 C-154.46 123.69 -153.79 123.17 -153.09 122.63 C-149.6 119.91 -146.18 117.11 -142.75 114.31 C-141.39 113.21 -140.04 112.1 -138.68 111 C-138.05 110.48 -137.41 109.96 -136.76 109.43 C-131.18 104.89 -125.54 100.42 -119.88 95.99 C-119.28 95.52 -118.68 95.05 -118.06 94.56 C-117.46 94.09 -116.86 93.62 -116.24 93.14 C-111.72 89.59 -107.28 85.96 -102.84 82.31 C-99 79.19 -95.1 76.14 -91.19 73.09 C-87.59 70.27 -84.03 67.41 -80.5 64.5 C-75.79 60.62 -71 56.85 -66.19 53.09 C-62.59 50.27 -59.03 47.41 -55.5 44.5 C-50.79 40.62 -46 36.85 -41.19 33.09 C-37.59 30.27 -34.03 27.41 -30.5 24.5 C-24.61 19.66 -18.62 14.96 -12.61 10.27 C-11.13 9.1 -9.65 7.92 -8.18 6.75 C-7.38 6.11 -6.58 5.47 -5.75 4.81 C-5.06 4.26 -4.38 3.71 -3.67 3.14 C-2 2 -2 2 0 2 C0 1.34 0 0.68 0 0 Z " fill="white" transform="translate(624,0)"/>
<path d="M0 0 C1.12 0 1.12 0 2.25 0.01 C3.43 0 3.43 0 4.63 0 C7.28 -0 9.93 0 12.57 0 C14.46 0 16.35 0 18.24 -0 C23.39 -0.01 28.54 -0 33.69 -0 C39.06 0 44.44 -0 49.82 -0 C58.84 -0 67.87 -0 76.9 0 C87.36 0.01 97.81 0.01 108.27 0 C117.23 -0 126.18 -0 135.14 -0 C140.5 0 145.86 0 151.22 -0 C156.25 -0.01 161.29 -0 166.33 0 C168.18 0 170.03 0 171.89 0 C174.41 -0 176.93 0 179.45 0.01 C180.19 0 180.93 0 181.7 0 C186.74 0.02 186.74 0.02 187.85 1.13 C187.95 2.79 187.97 4.45 187.97 6.11 C187.97 7.73 187.97 7.73 187.97 9.38 C187.97 10.57 187.97 11.77 187.96 13 C187.96 14.25 187.96 15.49 187.96 16.78 C187.96 20.21 187.96 23.65 187.95 27.08 C187.95 30.67 187.94 34.25 187.94 37.84 C187.94 44.63 187.93 51.42 187.92 58.21 C187.91 65.95 187.91 73.68 187.9 81.41 C187.89 97.32 187.87 113.23 187.85 129.13 C162.7 129.16 137.56 129.17 112.41 129.19 C100.73 129.19 89.06 129.2 77.38 129.21 C67.21 129.22 57.04 129.23 46.87 129.23 C41.48 129.23 36.09 129.23 30.7 129.24 C25.63 129.25 20.57 129.25 15.5 129.25 C13.63 129.25 11.77 129.25 9.9 129.25 C7.37 129.26 4.83 129.26 2.3 129.25 C1.55 129.26 0.8 129.26 0.03 129.26 C-5.04 129.25 -5.04 129.25 -6.15 128.13 C-6.25 126.49 -6.28 124.84 -6.28 123.2 C-6.28 122.13 -6.28 121.06 -6.29 119.96 C-6.28 118.78 -6.28 117.6 -6.28 116.38 C-6.28 115.14 -6.28 113.9 -6.28 112.63 C-6.29 109.23 -6.29 105.82 -6.28 102.42 C-6.28 98.87 -6.28 95.31 -6.29 91.76 C-6.29 85.79 -6.28 79.82 -6.28 73.85 C-6.27 66.94 -6.28 60.03 -6.28 53.12 C-6.29 47.2 -6.29 41.28 -6.28 35.35 C-6.28 31.81 -6.28 28.27 -6.29 24.73 C-6.29 20.78 -6.28 16.84 -6.28 12.89 C-6.28 11.71 -6.28 10.52 -6.29 9.31 C-6.28 8.24 -6.28 7.17 -6.28 6.07 C-6.28 5.13 -6.28 4.2 -6.28 3.24 C-6.03 -0.91 -3.57 0.01 0 0 Z " fill="white" transform="translate(1030.1496572494507,828.8662565946579)"/>
</svg>
